# MagicaVoxel @ Ephtracy

# group
g Red Flag

# material
mtllib Red Flag.mtl
usemtl palette

# normals
vn -1 0 0
vn 1 0 0
vn 0 0 1
vn 0 0 -1
vn 0 -1 0
vn 0 1 0

# texcoords
vt 0.876953 0.5
vt 0.880859 0.5
vt 0.978516 0.5

# verts
v -12 9 -16
v -12 9 -20
v -12 37 -16
v -12 37 -20
v -8 5 -16
v -8 5 -20
v -8 9 -16
v -8 9 -20
v -4 1 -16
v -4 1 -20
v -4 5 -16
v -4 5 -20
v 4 1 -16
v 4 1 -20
v 4 5 -16
v 4 5 -20
v 8 5 -16
v 8 5 -20
v 8 9 -16
v 8 9 -20
v 12 9 -16
v 12 9 -20
v 12 37 -16
v 12 37 -20
v -12 9 -16
v -12 37 -16
v -8 5 -16
v -8 9 -16
v -8 33 -16
v -8 37 -16
v -4 1 -16
v -4 5 -16
v -4 9 -16
v -4 13 -16
v -4 17 -16
v -4 21 -16
v -4 25 -16
v -4 29 -16
v 4 1 -16
v 4 5 -16
v 4 9 -16
v 4 13 -16
v 4 17 -16
v 4 21 -16
v 4 25 -16
v 4 29 -16
v 8 5 -16
v 8 9 -16
v 8 33 -16
v 8 37 -16
v 12 9 -16
v 12 37 -16
v -12 9 -20
v -12 37 -20
v -8 5 -20
v -8 9 -20
v -8 33 -20
v -8 37 -20
v -4 1 -20
v -4 5 -20
v -4 9 -20
v -4 13 -20
v -4 17 -20
v -4 21 -20
v -4 25 -20
v -4 29 -20
v 4 1 -20
v 4 5 -20
v 4 9 -20
v 4 13 -20
v 4 17 -20
v 4 21 -20
v 4 25 -20
v 4 29 -20
v 8 5 -20
v 8 9 -20
v 8 33 -20
v 8 37 -20
v 12 9 -20
v 12 37 -20
v -4 1 -16
v 4 1 -16
v -4 1 -20
v 4 1 -20
v -8 5 -16
v -4 5 -16
v 4 5 -16
v 8 5 -16
v -8 5 -20
v -4 5 -20
v 4 5 -20
v 8 5 -20
v -12 9 -16
v -8 9 -16
v 8 9 -16
v 12 9 -16
v -12 9 -20
v -8 9 -20
v 8 9 -20
v 12 9 -20
v -12 37 -16
v -8 37 -16
v 8 37 -16
v 12 37 -16
v -12 37 -20
v -8 37 -20
v 8 37 -20
v 12 37 -20

# faces
f 3/1/1 2/1/1 1/1/1
f 4/1/1 2/1/1 3/1/1
f 7/1/1 6/1/1 5/1/1
f 8/1/1 6/1/1 7/1/1
f 11/1/1 10/1/1 9/1/1
f 12/1/1 10/1/1 11/1/1
f 13/1/2 14/1/2 15/1/2
f 15/1/2 14/1/2 16/1/2
f 17/1/2 18/1/2 19/1/2
f 19/1/2 18/1/2 20/1/2
f 21/1/2 22/1/2 23/1/2
f 23/1/2 22/1/2 24/1/2
f 28/1/3 26/1/3 25/1/3
f 29/1/3 26/1/3 28/1/3
f 30/1/3 26/1/3 29/1/3
f 32/1/3 28/1/3 27/1/3
f 32/1/3 29/1/3 28/1/3
f 33/1/3 29/1/3 32/1/3
f 34/1/3 29/1/3 33/1/3
f 35/1/3 29/1/3 34/1/3
f 36/1/3 29/1/3 35/1/3
f 37/1/3 29/1/3 36/1/3
f 38/1/3 29/1/3 37/1/3
f 39/1/3 32/1/3 31/1/3
f 39/1/3 33/1/3 32/1/3
f 40/1/3 33/1/3 39/1/3
f 41/2/3 34/2/3 33/2/3
f 41/1/3 33/1/3 40/1/3
f 42/1/3 35/1/3 34/1/3
f 42/2/3 34/2/3 41/2/3
f 43/2/3 36/2/3 35/2/3
f 43/1/3 35/1/3 42/1/3
f 44/1/3 37/1/3 36/1/3
f 44/2/3 36/2/3 43/2/3
f 45/2/3 38/2/3 37/2/3
f 45/1/3 37/1/3 44/1/3
f 46/1/3 29/1/3 38/1/3
f 46/2/3 38/2/3 45/2/3
f 47/1/3 45/1/3 44/1/3
f 47/1/3 44/1/3 43/1/3
f 47/1/3 46/1/3 45/1/3
f 47/1/3 43/1/3 42/1/3
f 47/1/3 42/1/3 41/1/3
f 47/1/3 41/1/3 40/1/3
f 48/1/3 46/1/3 47/1/3
f 49/3/3 30/3/3 29/3/3
f 49/1/3 46/1/3 48/1/3
f 49/1/3 29/1/3 46/1/3
f 50/3/3 30/3/3 49/3/3
f 51/1/3 49/1/3 48/1/3
f 51/1/3 50/1/3 49/1/3
f 52/1/3 50/1/3 51/1/3
f 53/1/4 54/1/4 56/1/4
f 56/1/4 54/1/4 57/1/4
f 57/1/4 54/1/4 58/1/4
f 55/1/4 56/1/4 60/1/4
f 56/1/4 57/1/4 60/1/4
f 60/1/4 57/1/4 61/1/4
f 61/1/4 57/1/4 62/1/4
f 62/1/4 57/1/4 63/1/4
f 63/1/4 57/1/4 64/1/4
f 64/1/4 57/1/4 65/1/4
f 65/1/4 57/1/4 66/1/4
f 59/1/4 60/1/4 67/1/4
f 60/1/4 61/1/4 67/1/4
f 67/1/4 61/1/4 68/1/4
f 61/2/4 62/2/4 69/2/4
f 68/1/4 61/1/4 69/1/4
f 62/1/4 63/1/4 70/1/4
f 69/2/4 62/2/4 70/2/4
f 63/2/4 64/2/4 71/2/4
f 70/1/4 63/1/4 71/1/4
f 64/1/4 65/1/4 72/1/4
f 71/2/4 64/2/4 72/2/4
f 65/2/4 66/2/4 73/2/4
f 72/1/4 65/1/4 73/1/4
f 66/1/4 57/1/4 74/1/4
f 73/2/4 66/2/4 74/2/4
f 72/1/4 73/1/4 75/1/4
f 71/1/4 72/1/4 75/1/4
f 73/1/4 74/1/4 75/1/4
f 70/1/4 71/1/4 75/1/4
f 69/1/4 70/1/4 75/1/4
f 68/1/4 69/1/4 75/1/4
f 75/1/4 74/1/4 76/1/4
f 57/3/4 58/3/4 77/3/4
f 76/1/4 74/1/4 77/1/4
f 74/1/4 57/1/4 77/1/4
f 77/3/4 58/3/4 78/3/4
f 76/1/4 77/1/4 79/1/4
f 77/1/4 78/1/4 79/1/4
f 79/1/4 78/1/4 80/1/4
f 83/1/5 82/1/5 81/1/5
f 84/1/5 82/1/5 83/1/5
f 89/1/5 86/1/5 85/1/5
f 90/1/5 86/1/5 89/1/5
f 91/1/5 88/1/5 87/1/5
f 92/1/5 88/1/5 91/1/5
f 97/1/5 94/1/5 93/1/5
f 98/1/5 94/1/5 97/1/5
f 99/1/5 96/1/5 95/1/5
f 100/1/5 96/1/5 99/1/5
f 101/1/6 102/1/6 105/1/6
f 102/3/6 103/3/6 106/3/6
f 105/1/6 102/1/6 106/1/6
f 103/1/6 104/1/6 107/1/6
f 106/3/6 103/3/6 107/3/6
f 107/1/6 104/1/6 108/1/6
