# MagicaVoxel @ Ephtracy

# group
g Tiny Axe

# material
mtllib Tiny Axe.mtl
usemtl palette

# normals
vn -1 0 0
vn 1 0 0
vn 0 0 1
vn 0 0 -1
vn 0 -1 0
vn 0 1 0

# texcoords
vt 0.939453 0.5
vt 0.970703 0.5
vt 0.974609 0.5
vt 0.978516 0.5
vt 0.982422 0.5
vt 0.994141 0.5

# verts
v -7 12 -0
v -7 12 -1
v -7 15 -0
v -7 15 -1
v -6 9 -0
v -6 9 -1
v -6 12 -0
v -6 12 -1
v -6 15 -0
v -6 15 -1
v -6 16 -0
v -6 16 -1
v -5 6 -0
v -5 6 -1
v -5 9 -0
v -5 9 -1
v -5 12 1
v -5 12 -0
v -5 15 1
v -5 15 -0
v -4 5 -0
v -4 5 -1
v -4 6 -0
v -4 6 -1
v -4 7 1
v -4 7 -0
v -4 9 -0
v -4 12 1
v -4 12 -0
v -3 3 -0
v -3 3 -1
v -3 5 -0
v -3 5 -1
v -3 6 1
v -3 6 -0
v -3 7 1
v -3 7 -0
v -2 2 -0
v -2 2 -1
v -2 3 -0
v -2 3 -1
v -2 4 1
v -2 4 -0
v -2 5 -0
v -2 6 1
v -2 6 -0
v -1 1 -0
v -1 1 -1
v -1 2 -0
v -1 2 -1
v -1 3 1
v -1 3 -0
v -1 4 1
v -1 4 -0
v 0 0 -0
v 0 0 -1
v 0 1 -0
v 0 1 -1
v 3 9 -0
v 3 9 -1
v 3 10 -0
v 3 10 -1
v 4 0 -0
v 4 0 -1
v 4 9 -0
v 4 9 -1
v 4 11 1
v 4 11 -0
v 4 13 1
v 4 13 -0
v 4 14 1
v 4 14 -0
v 4 15 -0
v 4 15 -1
v 4 16 -0
v 4 16 -1
v -3 14 1
v -3 14 -0
v -3 15 1
v -3 15 -0
v -1 5 1
v -1 5 -0
v -1 6 -0
v -1 7 -0
v -1 8 -0
v -1 9 1
v -1 9 -0
v 0 3 1
v 0 3 -0
v 0 4 -0
v 0 5 1
v 0 5 -0
v 0 7 -0
v 0 7 -1
v 0 8 -0
v 0 8 -1
v 0 9 1
v 0 9 -0
v 0 10 -0
v 0 11 1
v 0 11 -0
v 0 15 -0
v 0 15 -1
v 0 16 -0
v 0 16 -1
v 1 0 -0
v 1 0 -1
v 1 1 -0
v 1 1 -1
v 1 5 -0
v 1 5 -1
v 1 7 -0
v 1 7 -1
v 1 8 -0
v 1 8 -1
v 1 10 -0
v 1 10 -1
v 1 11 1
v 1 11 -0
v 1 14 1
v 1 14 -0
v 2 1 -0
v 2 1 -1
v 2 5 -0
v 2 5 -1
v 6 11 1
v 6 11 -0
v 6 13 1
v 6 13 -0
v 6 14 1
v 6 14 -0
v 6 15 -0
v 6 15 -1
v 6 16 -0
v 6 16 -1
v 7 0 -0
v 7 0 -1
v 7 15 -0
v 7 15 -1
v -5 12 1
v -5 15 1
v -4 7 1
v -4 12 1
v -3 6 1
v -3 7 1
v -3 14 1
v -3 15 1
v -2 4 1
v -2 6 1
v -1 3 1
v -1 4 1
v -1 5 1
v -1 9 1
v 0 3 1
v 0 5 1
v 0 9 1
v 0 11 1
v 1 11 1
v 1 14 1
v 4 11 1
v 4 13 1
v 4 14 1
v 6 11 1
v 6 13 1
v 6 14 1
v -7 12 -0
v -7 15 -0
v -6 9 -0
v -6 12 -0
v -6 15 -0
v -6 16 -0
v -5 6 -0
v -5 9 -0
v -5 12 -0
v -5 15 -0
v -4 5 -0
v -4 6 -0
v -4 7 -0
v -4 9 -0
v -4 12 -0
v -3 3 -0
v -3 5 -0
v -3 6 -0
v -3 7 -0
v -3 14 -0
v -3 15 -0
v -2 2 -0
v -2 3 -0
v -2 4 -0
v -2 5 -0
v -2 6 -0
v -1 1 -0
v -1 2 -0
v -1 3 -0
v -1 4 -0
v -1 5 -0
v -1 6 -0
v -1 7 -0
v -1 8 -0
v -1 9 -0
v 0 0 -0
v 0 1 -0
v 0 2 -0
v 0 3 -0
v 0 4 -0
v 0 5 -0
v 0 6 -0
v 0 7 -0
v 0 8 -0
v 0 9 -0
v 0 10 -0
v 0 11 -0
v 0 14 -0
v 0 15 -0
v 0 16 -0
v 1 0 -0
v 1 1 -0
v 1 2 -0
v 1 4 -0
v 1 5 -0
v 1 7 -0
v 1 8 -0
v 1 10 -0
v 1 11 -0
v 1 14 -0
v 2 1 -0
v 2 5 -0
v 2 13 -0
v 2 14 -0
v 3 9 -0
v 3 10 -0
v 4 0 -0
v 4 9 -0
v 4 11 -0
v 4 13 -0
v 4 14 -0
v 4 15 -0
v 4 16 -0
v 5 0 -0
v 5 1 -0
v 5 9 -0
v 6 0 -0
v 6 1 -0
v 6 11 -0
v 6 13 -0
v 6 14 -0
v 6 15 -0
v 6 16 -0
v 7 0 -0
v 7 15 -0
v -7 12 -1
v -7 15 -1
v -6 9 -1
v -6 12 -1
v -6 15 -1
v -6 16 -1
v -5 6 -1
v -5 9 -1
v -5 12 -1
v -5 15 -1
v -4 5 -1
v -4 6 -1
v -4 7 -1
v -4 9 -1
v -3 3 -1
v -3 5 -1
v -3 6 -1
v -3 7 -1
v -3 14 -1
v -3 15 -1
v -2 2 -1
v -2 3 -1
v -2 4 -1
v -2 5 -1
v -1 1 -1
v -1 2 -1
v -1 3 -1
v -1 4 -1
v -1 6 -1
v -1 7 -1
v -1 8 -1
v -1 9 -1
v 0 0 -1
v 0 1 -1
v 0 2 -1
v 0 3 -1
v 0 4 -1
v 0 5 -1
v 0 6 -1
v 0 7 -1
v 0 8 -1
v 0 9 -1
v 0 10 -1
v 0 11 -1
v 0 14 -1
v 0 15 -1
v 0 16 -1
v 1 0 -1
v 1 1 -1
v 1 2 -1
v 1 4 -1
v 1 5 -1
v 1 7 -1
v 1 8 -1
v 1 10 -1
v 1 11 -1
v 2 1 -1
v 2 5 -1
v 2 13 -1
v 2 14 -1
v 3 9 -1
v 3 10 -1
v 4 0 -1
v 4 9 -1
v 4 11 -1
v 4 14 -1
v 4 15 -1
v 4 16 -1
v 5 0 -1
v 5 1 -1
v 5 9 -1
v 6 0 -1
v 6 1 -1
v 6 11 -1
v 6 13 -1
v 6 14 -1
v 6 15 -1
v 6 16 -1
v 7 0 -1
v 7 15 -1
v 0 0 -0
v 1 0 -0
v 4 0 -0
v 5 0 -0
v 6 0 -0
v 7 0 -0
v 0 0 -1
v 1 0 -1
v 4 0 -1
v 5 0 -1
v 6 0 -1
v 7 0 -1
v -1 1 -0
v 0 1 -0
v 1 1 -0
v 2 1 -0
v -1 1 -1
v 0 1 -1
v 1 1 -1
v 2 1 -1
v -2 2 -0
v -1 2 -0
v -2 2 -1
v -1 2 -1
v -1 3 1
v 0 3 1
v -3 3 -0
v -2 3 -0
v -1 3 -0
v 0 3 -0
v -3 3 -1
v -2 3 -1
v -2 4 1
v -1 4 1
v -2 4 -0
v -1 4 -0
v -4 5 -0
v -3 5 -0
v -4 5 -1
v -3 5 -1
v -3 6 1
v -2 6 1
v -5 6 -0
v -4 6 -0
v -3 6 -0
v -2 6 -0
v -5 6 -1
v -4 6 -1
v -4 7 1
v -3 7 1
v -4 7 -0
v -3 7 -0
v 0 8 -0
v 1 8 -0
v 0 8 -1
v 1 8 -1
v -1 9 1
v 0 9 1
v -6 9 -0
v -5 9 -0
v -1 9 -0
v 0 9 -0
v 3 9 -0
v 4 9 -0
v -6 9 -1
v -5 9 -1
v 3 9 -1
v 4 9 -1
v 1 10 -0
v 3 10 -0
v 1 10 -1
v 3 10 -1
v 0 11 1
v 1 11 1
v 4 11 1
v 6 11 1
v 0 11 -0
v 1 11 -0
v 4 11 -0
v 6 11 -0
v -5 12 1
v -4 12 1
v -7 12 -0
v -6 12 -0
v -5 12 -0
v -4 12 -0
v -7 12 -1
v -6 12 -1
v -1 5 1
v 0 5 1
v -1 5 -0
v 0 5 -0
v 1 5 -0
v 2 5 -0
v 1 5 -1
v 2 5 -1
v 0 7 -0
v 1 7 -0
v 0 7 -1
v 1 7 -1
v -3 14 1
v 1 14 1
v 4 14 1
v 6 14 1
v -3 14 -0
v 0 14 -0
v 1 14 -0
v 4 14 -0
v 6 14 -0
v -5 15 1
v -3 15 1
v -7 15 -0
v -6 15 -0
v -5 15 -0
v -3 15 -0
v 0 15 -0
v 4 15 -0
v 6 15 -0
v 7 15 -0
v -7 15 -1
v -6 15 -1
v 0 15 -1
v 4 15 -1
v 6 15 -1
v 7 15 -1
v -6 16 -0
v 0 16 -0
v 4 16 -0
v 6 16 -0
v -6 16 -1
v 0 16 -1
v 4 16 -1
v 6 16 -1

# faces
f 3/6/1 2/6/1 1/6/1
f 4/6/1 2/6/1 3/6/1
f 7/6/1 6/6/1 5/6/1
f 8/6/1 6/6/1 7/6/1
f 11/6/1 10/6/1 9/6/1
f 12/6/1 10/6/1 11/6/1
f 15/6/1 14/6/1 13/6/1
f 16/6/1 14/6/1 15/6/1
f 19/1/1 18/1/1 17/1/1
f 20/1/1 18/1/1 19/1/1
f 23/6/1 22/6/1 21/6/1
f 24/6/1 22/6/1 23/6/1
f 27/1/1 26/1/1 25/1/1
f 28/1/1 27/1/1 25/1/1
f 29/1/1 27/1/1 28/1/1
f 32/6/1 31/6/1 30/6/1
f 33/6/1 31/6/1 32/6/1
f 36/1/1 35/1/1 34/1/1
f 37/1/1 35/1/1 36/1/1
f 40/6/1 39/6/1 38/6/1
f 41/6/1 39/6/1 40/6/1
f 44/1/1 43/1/1 42/1/1
f 45/1/1 44/1/1 42/1/1
f 46/1/1 44/1/1 45/1/1
f 49/6/1 48/6/1 47/6/1
f 50/6/1 48/6/1 49/6/1
f 53/1/1 52/1/1 51/1/1
f 54/1/1 52/1/1 53/1/1
f 57/6/1 56/6/1 55/6/1
f 58/6/1 56/6/1 57/6/1
f 61/6/1 60/6/1 59/6/1
f 62/6/1 60/6/1 61/6/1
f 65/6/1 64/6/1 63/6/1
f 66/6/1 64/6/1 65/6/1
f 69/3/1 68/3/1 67/3/1
f 70/3/1 68/3/1 69/3/1
f 71/2/1 70/2/1 69/2/1
f 72/2/1 70/2/1 71/2/1
f 75/6/1 74/6/1 73/6/1
f 76/6/1 74/6/1 75/6/1
f 77/1/2 78/1/2 79/1/2
f 79/1/2 78/1/2 80/1/2
f 81/1/2 82/1/2 83/1/2
f 81/1/2 83/1/2 84/1/2
f 81/1/2 84/1/2 85/1/2
f 81/1/2 85/1/2 86/1/2
f 86/1/2 85/1/2 87/1/2
f 88/1/2 89/1/2 90/1/2
f 88/1/2 90/1/2 91/1/2
f 91/1/2 90/1/2 92/1/2
f 93/6/2 94/6/2 95/6/2
f 95/6/2 94/6/2 96/6/2
f 97/1/2 98/1/2 99/1/2
f 97/1/2 99/1/2 100/1/2
f 100/1/2 99/1/2 101/1/2
f 102/6/2 103/6/2 104/6/2
f 104/6/2 103/6/2 105/6/2
f 106/6/2 107/6/2 108/6/2
f 108/6/2 107/6/2 109/6/2
f 110/6/2 111/6/2 112/6/2
f 112/6/2 111/6/2 113/6/2
f 114/6/2 115/6/2 116/6/2
f 116/6/2 115/6/2 117/6/2
f 118/1/2 119/1/2 120/1/2
f 120/1/2 119/1/2 121/1/2
f 122/6/2 123/6/2 124/6/2
f 124/6/2 123/6/2 125/6/2
f 126/3/2 127/3/2 128/3/2
f 128/3/2 127/3/2 129/3/2
f 128/2/2 129/2/2 130/2/2
f 130/2/2 129/2/2 131/2/2
f 132/6/2 133/6/2 134/6/2
f 134/6/2 133/6/2 135/6/2
f 136/6/2 137/6/2 138/6/2
f 138/6/2 137/6/2 139/6/2
f 143/1/3 141/1/3 140/1/3
f 145/1/3 143/1/3 142/1/3
f 146/1/3 141/1/3 143/1/3
f 146/1/3 143/1/3 145/1/3
f 147/1/3 141/1/3 146/1/3
f 149/1/3 145/1/3 144/1/3
f 149/1/3 146/1/3 145/1/3
f 151/1/3 149/1/3 148/1/3
f 152/1/3 149/1/3 151/1/3
f 153/1/3 146/1/3 149/1/3
f 153/1/3 149/1/3 152/1/3
f 154/1/3 152/1/3 151/1/3
f 154/1/3 151/1/3 150/1/3
f 155/1/3 152/1/3 154/1/3
f 156/1/3 146/1/3 153/1/3
f 157/1/3 146/1/3 156/1/3
f 158/1/3 146/1/3 157/1/3
f 159/1/3 146/1/3 158/1/3
f 163/3/3 161/3/3 160/3/3
f 164/2/3 162/2/3 161/2/3
f 164/3/3 161/3/3 163/3/3
f 165/2/3 162/2/3 164/2/3
f 169/6/3 167/6/3 166/6/3
f 170/6/3 167/6/3 169/6/3
f 173/6/3 169/6/3 168/6/3
f 174/2/3 170/2/3 169/2/3
f 174/6/3 169/6/3 173/6/3
f 175/6/3 171/6/3 170/6/3
f 175/2/3 170/2/3 174/2/3
f 177/6/3 173/6/3 172/6/3
f 178/6/3 173/6/3 177/6/3
f 179/3/3 174/3/3 173/3/3
f 179/6/3 173/6/3 178/6/3
f 180/3/3 174/3/3 179/3/3
f 182/6/3 177/6/3 176/6/3
f 183/2/3 178/2/3 177/2/3
f 183/6/3 177/6/3 182/6/3
f 184/2/3 178/2/3 183/2/3
f 186/6/3 171/6/3 175/6/3
f 188/6/3 182/6/3 181/6/3
f 189/6/3 182/6/3 188/6/3
f 190/3/3 183/3/3 182/3/3
f 190/6/3 182/6/3 189/6/3
f 191/3/3 183/3/3 190/3/3
f 193/6/3 188/6/3 187/6/3
f 194/2/3 189/2/3 188/2/3
f 194/6/3 188/6/3 193/6/3
f 195/2/3 189/2/3 194/2/3
f 202/6/3 193/6/3 192/6/3
f 203/2/3 194/2/3 193/2/3
f 203/6/3 193/6/3 202/6/3
f 204/2/3 194/2/3 203/2/3
f 206/3/3 197/3/3 196/3/3
f 207/2/3 198/2/3 197/2/3
f 207/3/3 197/3/3 206/3/3
f 208/6/3 199/6/3 198/6/3
f 208/2/3 198/2/3 207/2/3
f 209/2/3 200/2/3 199/2/3
f 209/6/3 199/6/3 208/6/3
f 210/2/3 200/2/3 209/2/3
f 213/2/3 186/2/3 185/2/3
f 214/6/3 171/6/3 186/6/3
f 214/2/3 186/2/3 213/2/3
f 215/6/3 171/6/3 214/6/3
f 216/6/3 202/6/3 201/6/3
f 217/2/3 203/2/3 202/2/3
f 217/6/3 202/6/3 216/6/3
f 218/3/3 205/3/3 204/3/3
f 218/2/3 203/2/3 217/2/3
f 218/3/3 204/3/3 203/3/3
f 219/2/3 206/2/3 205/2/3
f 219/3/3 205/3/3 218/3/3
f 220/6/3 207/6/3 206/6/3
f 220/2/3 206/2/3 219/2/3
f 220/6/3 208/6/3 207/6/3
f 221/6/3 208/6/3 220/6/3
f 222/6/3 210/6/3 209/6/3
f 222/6/3 211/6/3 210/6/3
f 223/2/3 212/2/3 211/2/3
f 223/6/3 211/6/3 222/6/3
f 224/2/3 212/2/3 223/2/3
f 225/6/3 214/6/3 213/6/3
f 226/6/3 219/6/3 218/6/3
f 226/6/3 218/6/3 217/6/3
f 226/6/3 220/6/3 219/6/3
f 227/6/3 220/6/3 226/6/3
f 228/3/3 225/3/3 224/3/3
f 229/6/3 214/6/3 225/6/3
f 229/3/3 225/3/3 228/3/3
f 231/6/3 224/6/3 223/6/3
f 233/6/3 231/6/3 230/6/3
f 234/3/3 228/3/3 224/3/3
f 234/6/3 224/6/3 231/6/3
f 234/6/3 231/6/3 233/6/3
f 235/2/3 229/2/3 228/2/3
f 235/3/3 228/3/3 234/3/3
f 236/6/3 214/6/3 229/6/3
f 236/2/3 229/2/3 235/2/3
f 237/6/3 214/6/3 236/6/3
f 239/6/3 233/6/3 232/6/3
f 240/6/3 233/6/3 239/6/3
f 241/4/3 234/4/3 233/4/3
f 241/6/3 233/6/3 240/6/3
f 242/5/3 240/5/3 239/5/3
f 243/4/3 241/4/3 240/4/3
f 243/5/3 240/5/3 242/5/3
f 244/4/3 234/4/3 241/4/3
f 244/4/3 241/4/3 243/4/3
f 246/4/3 237/4/3 236/4/3
f 247/6/3 238/6/3 237/6/3
f 247/4/3 237/4/3 246/4/3
f 248/6/3 238/6/3 247/6/3
f 249/6/3 246/6/3 245/6/3
f 249/6/3 245/6/3 244/6/3
f 249/6/3 247/6/3 246/6/3
f 249/6/3 243/6/3 242/6/3
f 249/6/3 244/6/3 243/6/3
f 250/6/3 247/6/3 249/6/3
f 251/6/4 252/6/4 254/6/4
f 254/6/4 252/6/4 255/6/4
f 253/6/4 254/6/4 258/6/4
f 254/2/4 255/2/4 259/2/4
f 258/6/4 254/6/4 259/6/4
f 255/6/4 256/6/4 260/6/4
f 259/2/4 255/2/4 260/2/4
f 257/6/4 258/6/4 262/6/4
f 262/6/4 258/6/4 263/6/4
f 258/3/4 259/3/4 264/3/4
f 263/6/4 258/6/4 264/6/4
f 259/3/4 260/3/4 264/3/4
f 261/6/4 262/6/4 266/6/4
f 262/2/4 263/2/4 267/2/4
f 266/6/4 262/6/4 267/6/4
f 263/3/4 264/3/4 268/3/4
f 267/2/4 263/2/4 268/2/4
f 264/3/4 260/3/4 269/3/4
f 268/3/4 264/3/4 269/3/4
f 260/6/4 256/6/4 270/6/4
f 269/3/4 260/3/4 270/3/4
f 265/6/4 266/6/4 272/6/4
f 272/6/4 266/6/4 273/6/4
f 268/3/4 269/3/4 274/3/4
f 273/6/4 266/6/4 274/6/4
f 267/3/4 268/3/4 274/3/4
f 266/3/4 267/3/4 274/3/4
f 271/6/4 272/6/4 276/6/4
f 272/2/4 273/2/4 277/2/4
f 276/6/4 272/6/4 277/6/4
f 273/3/4 274/3/4 278/3/4
f 277/2/4 273/2/4 278/2/4
f 274/3/4 269/3/4 279/3/4
f 278/3/4 274/3/4 279/3/4
f 279/3/4 269/3/4 280/3/4
f 280/3/4 269/3/4 281/3/4
f 281/3/4 269/3/4 282/3/4
f 275/6/4 276/6/4 284/6/4
f 276/2/4 277/2/4 285/2/4
f 284/6/4 276/6/4 285/6/4
f 277/3/4 278/3/4 286/3/4
f 285/2/4 277/2/4 286/2/4
f 278/3/4 279/3/4 286/3/4
f 286/3/4 279/3/4 287/3/4
f 287/3/4 279/3/4 288/3/4
f 279/2/4 280/2/4 289/2/4
f 288/3/4 279/3/4 289/3/4
f 280/6/4 281/6/4 290/6/4
f 289/2/4 280/2/4 290/2/4
f 281/2/4 282/2/4 291/2/4
f 290/6/4 281/6/4 291/6/4
f 282/3/4 269/3/4 292/3/4
f 291/2/4 282/2/4 292/2/4
f 292/3/4 269/3/4 293/3/4
f 293/3/4 269/3/4 294/3/4
f 269/2/4 270/2/4 295/2/4
f 294/3/4 269/3/4 295/3/4
f 270/6/4 256/6/4 296/6/4
f 295/2/4 270/2/4 296/2/4
f 296/6/4 256/6/4 297/6/4
f 283/6/4 284/6/4 298/6/4
f 284/2/4 285/2/4 299/2/4
f 298/6/4 284/6/4 299/6/4
f 285/3/4 286/3/4 300/3/4
f 299/2/4 285/2/4 300/2/4
f 286/3/4 287/3/4 300/3/4
f 287/2/4 288/2/4 301/2/4
f 300/3/4 287/3/4 301/3/4
f 288/6/4 289/6/4 302/6/4
f 301/2/4 288/2/4 302/2/4
f 289/6/4 290/6/4 302/6/4
f 302/6/4 290/6/4 303/6/4
f 291/6/4 292/6/4 304/6/4
f 292/6/4 293/6/4 304/6/4
f 293/2/4 294/2/4 305/2/4
f 304/6/4 293/6/4 305/6/4
f 294/3/4 295/3/4 306/3/4
f 305/2/4 294/2/4 306/2/4
f 299/6/4 300/6/4 307/6/4
f 300/6/4 301/6/4 307/6/4
f 301/6/4 302/6/4 307/6/4
f 307/6/4 302/6/4 308/6/4
f 306/3/4 295/3/4 309/3/4
f 295/6/4 296/6/4 310/6/4
f 309/3/4 295/3/4 310/3/4
f 305/6/4 306/6/4 312/6/4
f 311/6/4 312/6/4 314/6/4
f 306/3/4 309/3/4 315/3/4
f 312/6/4 306/6/4 315/6/4
f 314/6/4 312/6/4 315/6/4
f 310/6/4 296/6/4 316/6/4
f 309/2/4 310/2/4 316/2/4
f 316/6/4 296/6/4 317/6/4
f 313/6/4 314/6/4 319/6/4
f 319/6/4 314/6/4 320/6/4
f 314/4/4 315/4/4 321/4/4
f 320/6/4 314/6/4 321/6/4
f 319/5/4 320/5/4 322/5/4
f 320/4/4 321/4/4 323/4/4
f 322/5/4 320/5/4 323/5/4
f 315/3/4 309/3/4 324/3/4
f 323/4/4 321/4/4 324/4/4
f 321/4/4 315/4/4 324/4/4
f 309/2/4 316/2/4 325/2/4
f 324/3/4 309/3/4 325/3/4
f 316/4/4 317/4/4 326/4/4
f 325/2/4 316/2/4 326/2/4
f 317/6/4 318/6/4 327/6/4
f 326/4/4 317/4/4 327/4/4
f 327/6/4 318/6/4 328/6/4
f 322/6/4 323/6/4 329/6/4
f 325/6/4 326/6/4 329/6/4
f 326/6/4 327/6/4 329/6/4
f 323/6/4 324/6/4 329/6/4
f 324/6/4 325/6/4 329/6/4
f 329/6/4 327/6/4 330/6/4
f 337/6/5 332/6/5 331/6/5
f 338/6/5 332/6/5 337/6/5
f 339/6/5 334/6/5 333/6/5
f 340/5/5 335/5/5 334/5/5
f 340/6/5 334/6/5 339/6/5
f 341/6/5 336/6/5 335/6/5
f 341/5/5 335/5/5 340/5/5
f 342/6/5 336/6/5 341/6/5
f 347/6/5 344/6/5 343/6/5
f 348/6/5 344/6/5 347/6/5
f 349/6/5 346/6/5 345/6/5
f 350/6/5 346/6/5 349/6/5
f 353/6/5 352/6/5 351/6/5
f 354/6/5 352/6/5 353/6/5
f 359/1/5 356/1/5 355/1/5
f 360/1/5 356/1/5 359/1/5
f 361/6/5 358/6/5 357/6/5
f 362/6/5 358/6/5 361/6/5
f 365/1/5 364/1/5 363/1/5
f 366/1/5 364/1/5 365/1/5
f 369/6/5 368/6/5 367/6/5
f 370/6/5 368/6/5 369/6/5
f 375/1/5 372/1/5 371/1/5
f 376/1/5 372/1/5 375/1/5
f 377/6/5 374/6/5 373/6/5
f 378/6/5 374/6/5 377/6/5
f 381/1/5 380/1/5 379/1/5
f 382/1/5 380/1/5 381/1/5
f 385/6/5 384/6/5 383/6/5
f 386/6/5 384/6/5 385/6/5
f 391/1/5 388/1/5 387/1/5
f 392/1/5 388/1/5 391/1/5
f 395/6/5 390/6/5 389/6/5
f 396/6/5 390/6/5 395/6/5
f 397/6/5 394/6/5 393/6/5
f 398/6/5 394/6/5 397/6/5
f 401/6/5 400/6/5 399/6/5
f 402/6/5 400/6/5 401/6/5
f 407/1/5 404/1/5 403/1/5
f 408/1/5 404/1/5 407/1/5
f 409/3/5 406/3/5 405/3/5
f 410/3/5 406/3/5 409/3/5
f 415/1/5 412/1/5 411/1/5
f 416/1/5 412/1/5 415/1/5
f 417/6/5 414/6/5 413/6/5
f 418/6/5 414/6/5 417/6/5
f 419/1/6 420/1/6 421/1/6
f 421/1/6 420/1/6 422/1/6
f 423/6/6 424/6/6 425/6/6
f 425/6/6 424/6/6 426/6/6
f 427/6/6 428/6/6 429/6/6
f 429/6/6 428/6/6 430/6/6
f 431/1/6 432/1/6 435/1/6
f 435/1/6 432/1/6 436/1/6
f 436/1/6 432/1/6 437/1/6
f 433/2/6 434/2/6 438/2/6
f 438/2/6 434/2/6 439/2/6
f 440/1/6 441/1/6 444/1/6
f 444/1/6 441/1/6 445/1/6
f 442/6/6 443/6/6 450/6/6
f 450/6/6 443/6/6 451/6/6
f 446/6/6 447/6/6 452/6/6
f 452/6/6 447/6/6 453/6/6
f 448/6/6 449/6/6 454/6/6
f 454/6/6 449/6/6 455/6/6
f 456/6/6 457/6/6 460/6/6
f 460/6/6 457/6/6 461/6/6
f 458/6/6 459/6/6 462/6/6
f 462/6/6 459/6/6 463/6/6
