# MagicaVoxel @ Ephtracy

# group
g Elevated Ground-1

# material
mtllib Elevated Ground-1.mtl
usemtl palette

# normals
vn -1 0 0
vn 1 0 0
vn 0 0 1
vn 0 0 -1
vn 0 -1 0
vn 0 1 0

# texcoords
vt 0.970703 0.5
vt 0.974609 0.5

# verts
v -63 0 1
v -63 0 -63
v -63 14 1
v -63 14 -63
v -63 16 1
v -63 16 -28
v -63 16 -63
v -63 35 -28
v -63 35 -63
v -63 37 -28
v -63 37 -63
v 6 16 -22
v 6 16 -63
v 6 27 -22
v 6 27 -63
v 6 29 -22
v 6 29 -63
v -29 16 -28
v -29 16 -63
v -29 35 -28
v -29 35 -63
v -29 37 -28
v -29 37 -63
v 20 0 1
v 20 0 -3
v 20 7 -3
v 20 9 -3
v 20 9 -22
v 20 14 1
v 20 14 -22
v 20 16 1
v 20 16 -22
v 43 9 -22
v 43 9 -63
v 43 27 -22
v 43 27 -63
v 43 29 -22
v 43 29 -63
v 63 0 -3
v 63 0 -63
v 63 7 -3
v 63 7 -63
v 63 9 -3
v 63 9 -63
v -63 0 1
v -63 14 1
v -63 16 1
v 20 0 1
v 20 14 1
v 20 16 1
v 20 0 -3
v 20 7 -3
v 20 9 -3
v 63 0 -3
v 63 7 -3
v 63 9 -3
v 6 16 -22
v 6 27 -22
v 6 29 -22
v 20 9 -22
v 20 14 -22
v 20 16 -22
v 43 9 -22
v 43 27 -22
v 43 29 -22
v -63 16 -28
v -63 35 -28
v -63 37 -28
v -29 16 -28
v -29 35 -28
v -29 37 -28
v -63 0 -63
v -63 14 -63
v -63 16 -63
v -63 35 -63
v -63 37 -63
v -29 16 -63
v -29 35 -63
v -29 37 -63
v 6 16 -63
v 6 27 -63
v 6 29 -63
v 20 14 -63
v 20 16 -63
v 43 7 -63
v 43 9 -63
v 43 27 -63
v 43 29 -63
v 63 0 -63
v 63 7 -63
v 63 9 -63
v -63 0 1
v 20 0 1
v 20 0 -3
v 63 0 -3
v -63 0 -63
v 63 0 -63
v 20 9 -3
v 63 9 -3
v 20 9 -22
v 43 9 -22
v 43 9 -63
v 63 9 -63
v -63 16 1
v 20 16 1
v 6 16 -22
v 20 16 -22
v -63 16 -28
v -29 16 -28
v -29 16 -63
v 6 16 -63
v 6 29 -22
v 43 29 -22
v 6 29 -63
v 43 29 -63
v -63 37 -28
v -29 37 -28
v -63 37 -63
v -29 37 -63

# faces
f 3/1/1 2/1/1 1/1/1
f 4/1/1 2/1/1 3/1/1
f 5/2/1 4/2/1 3/2/1
f 6/2/1 4/2/1 5/2/1
f 7/2/1 4/2/1 6/2/1
f 8/1/1 7/1/1 6/1/1
f 9/1/1 7/1/1 8/1/1
f 10/2/1 9/2/1 8/2/1
f 11/2/1 9/2/1 10/2/1
f 14/1/1 13/1/1 12/1/1
f 15/1/1 13/1/1 14/1/1
f 16/2/1 15/2/1 14/2/1
f 17/2/1 15/2/1 16/2/1
f 18/1/2 19/1/2 20/1/2
f 20/1/2 19/1/2 21/1/2
f 20/2/2 21/2/2 22/2/2
f 22/2/2 21/2/2 23/2/2
f 24/1/2 25/1/2 26/1/2
f 24/1/2 26/1/2 27/1/2
f 24/1/2 27/1/2 29/1/2
f 27/1/2 28/1/2 29/1/2
f 29/1/2 28/1/2 30/1/2
f 29/2/2 30/2/2 31/2/2
f 31/2/2 30/2/2 32/2/2
f 33/1/2 34/1/2 35/1/2
f 35/1/2 34/1/2 36/1/2
f 35/2/2 36/2/2 37/2/2
f 37/2/2 36/2/2 38/2/2
f 39/1/2 40/1/2 41/1/2
f 41/1/2 40/1/2 42/1/2
f 41/2/2 42/2/2 43/2/2
f 43/2/2 42/2/2 44/2/2
f 48/1/3 46/1/3 45/1/3
f 49/2/3 47/2/3 46/2/3
f 49/1/3 46/1/3 48/1/3
f 50/2/3 47/2/3 49/2/3
f 54/1/3 52/1/3 51/1/3
f 55/2/3 53/2/3 52/2/3
f 55/1/3 52/1/3 54/1/3
f 56/2/3 53/2/3 55/2/3
f 62/1/3 58/1/3 57/1/3
f 63/1/3 61/1/3 60/1/3
f 63/1/3 62/1/3 61/1/3
f 64/1/3 58/1/3 62/1/3
f 64/1/3 62/1/3 63/1/3
f 64/2/3 59/2/3 58/2/3
f 65/2/3 59/2/3 64/2/3
f 69/1/3 67/1/3 66/1/3
f 70/2/3 68/2/3 67/2/3
f 70/1/3 67/1/3 69/1/3
f 71/2/3 68/2/3 70/2/3
f 73/2/4 74/2/4 77/2/4
f 74/1/4 75/1/4 77/1/4
f 75/2/4 76/2/4 78/2/4
f 77/1/4 75/1/4 78/1/4
f 78/2/4 76/2/4 79/2/4
f 73/2/4 77/2/4 80/2/4
f 72/1/4 73/1/4 83/1/4
f 73/2/4 80/2/4 83/2/4
f 80/1/4 81/1/4 84/1/4
f 83/2/4 80/2/4 84/2/4
f 72/1/4 83/1/4 85/1/4
f 83/1/4 84/1/4 85/1/4
f 85/1/4 84/1/4 86/1/4
f 81/2/4 82/2/4 87/2/4
f 86/1/4 84/1/4 87/1/4
f 84/1/4 81/1/4 87/1/4
f 87/2/4 82/2/4 88/2/4
f 72/1/4 85/1/4 89/1/4
f 85/2/4 86/2/4 90/2/4
f 89/1/4 85/1/4 90/1/4
f 90/2/4 86/2/4 91/2/4
f 94/1/5 93/1/5 92/1/5
f 96/1/5 94/1/5 92/1/5
f 96/1/5 95/1/5 94/1/5
f 97/1/5 95/1/5 96/1/5
f 98/2/6 99/2/6 100/2/6
f 100/2/6 99/2/6 101/2/6
f 101/2/6 99/2/6 102/2/6
f 102/2/6 99/2/6 103/2/6
f 104/2/6 105/2/6 106/2/6
f 106/2/6 105/2/6 107/2/6
f 104/2/6 106/2/6 108/2/6
f 108/2/6 106/2/6 109/2/6
f 109/2/6 106/2/6 110/2/6
f 110/2/6 106/2/6 111/2/6
f 112/2/6 113/2/6 114/2/6
f 114/2/6 113/2/6 115/2/6
f 116/2/6 117/2/6 118/2/6
f 118/2/6 117/2/6 119/2/6
