# MagicaVoxel @ Ephtracy

# group
g Gurnion Field

# material
mtllib Gurnion Field.mtl
usemtl palette

# normals
vn -1 0 0
vn 1 0 0
vn 0 0 1
vn 0 0 -1
vn 0 -1 0
vn 0 1 0

# texcoords
vt 0.908203 0.5
vt 0.939453 0.5
vt 0.943359 0.5
vt 0.970703 0.5
vt 0.974609 0.5

# verts
v -63 0 63
v -63 0 -63
v -63 4 63
v -63 4 -63
v -63 6 63
v -63 6 -63
v -63 7 63
v -63 7 -63
v 12 2 55
v 12 2 54
v 12 3 55
v 12 3 54
v 17 2 63
v 17 2 62
v 17 3 63
v 17 3 62
v 11 2 55
v 11 2 54
v 11 3 55
v 11 3 54
v 16 2 63
v 16 2 62
v 16 3 63
v 16 3 62
v 63 0 63
v 63 0 -63
v 63 4 63
v 63 4 -63
v 63 7 63
v 63 7 -63
v -63 0 63
v -63 4 63
v -63 6 63
v -63 7 63
v -43 6 63
v -43 7 63
v -28 6 63
v -28 7 63
v -10 3 63
v -10 4 63
v -10 6 63
v -9 1 63
v -9 3 63
v 16 1 63
v 16 2 63
v 16 3 63
v 17 0 63
v 17 2 63
v 17 3 63
v 63 0 63
v 63 4 63
v 63 7 63
v 16 2 62
v 16 3 62
v 17 2 62
v 17 3 62
v 11 2 54
v 11 3 54
v 12 2 54
v 12 3 54
v 11 2 55
v 11 3 55
v 12 2 55
v 12 3 55
v -63 0 -63
v -63 4 -63
v -63 6 -63
v -63 7 -63
v -21 3 -63
v -21 4 -63
v -21 6 -63
v -20 0 -63
v -20 3 -63
v 10 0 -63
v 10 3 -63
v 12 0 -63
v 12 3 -63
v 63 0 -63
v 63 4 -63
v 63 7 -63
v -63 0 63
v 17 0 63
v 63 0 63
v 16 0 62
v 17 0 62
v 15 0 60
v 16 0 60
v 14 0 58
v 15 0 58
v 13 0 57
v 14 0 57
v 12 0 55
v 13 0 55
v 11 0 54
v 12 0 54
v 10 0 52
v 11 0 52
v 9 0 50
v 10 0 50
v 8 0 47
v 9 0 47
v 7 0 45
v 8 0 45
v 6 0 43
v 7 0 43
v 5 0 40
v 6 0 40
v 4 0 38
v 5 0 38
v 3 0 36
v 4 0 36
v 2 0 34
v 3 0 34
v 1 0 30
v 2 0 30
v 0 0 24
v 1 0 24
v -24 0 23
v -10 0 23
v -10 0 22
v -1 0 22
v -25 0 21
v -24 0 21
v -1 0 20
v 0 0 20
v -26 0 16
v -25 0 16
v -26 0 5
v -25 0 5
v -25 0 -1
v -24 0 -1
v -24 0 -4
v -23 0 -4
v -23 0 -7
v -22 0 -7
v -22 0 -13
v -21 0 -13
v 3 0 -15
v 4 0 -15
v -21 0 -16
v -20 0 -16
v -20 0 -17
v -19 0 -17
v 3 0 -17
v 4 0 -17
v 5 0 -17
v 5 0 -18
v 6 0 -18
v -19 0 -19
v -18 0 -19
v 4 0 -19
v 5 0 -19
v 6 0 -19
v 7 0 -19
v -18 0 -20
v -17 0 -20
v 5 0 -20
v 6 0 -20
v -17 0 -21
v -16 0 -21
v 7 0 -21
v 8 0 -21
v 6 0 -22
v 7 0 -22
v -16 0 -23
v -15 0 -23
v 8 0 -23
v 9 0 -23
v -15 0 -24
v -14 0 -24
v 7 0 -24
v 8 0 -24
v -14 0 -25
v -13 0 -25
v 9 0 -25
v 10 0 -25
v 8 0 -26
v 9 0 -26
v -13 0 -27
v -12 0 -27
v 10 0 -28
v 11 0 -28
v -12 0 -29
v -11 0 -29
v 9 0 -29
v 10 0 -29
v 11 0 -30
v 12 0 -30
v -11 0 -31
v -10 0 -31
v 10 0 -31
v 11 0 -31
v 12 0 -33
v 13 0 -33
v 11 0 -34
v 12 0 -34
v -10 0 -35
v -9 0 -35
v 13 0 -38
v 14 0 -38
v 12 0 -39
v 13 0 -39
v -9 0 -40
v -8 0 -40
v 13 0 -44
v 14 0 -44
v 15 0 -44
v -9 0 -48
v -8 0 -48
v 13 0 -52
v 14 0 -52
v -10 0 -53
v -9 0 -53
v 14 0 -53
v 15 0 -53
v -11 0 -55
v -10 0 -55
v 12 0 -56
v 13 0 -56
v -12 0 -57
v -11 0 -57
v 13 0 -57
v 14 0 -57
v -13 0 -58
v -12 0 -58
v -15 0 -59
v -13 0 -59
v 11 0 -59
v 12 0 -59
v -16 0 -60
v -15 0 -60
v 12 0 -60
v 13 0 -60
v -18 0 -61
v -16 0 -61
v -20 0 -62
v -18 0 -62
v 10 0 -62
v 11 0 -62
v -63 0 -63
v -20 0 -63
v 10 0 -63
v 12 0 -63
v 63 0 -63
v 16 3 63
v 17 3 63
v 16 3 62
v 17 3 62
v 11 3 55
v 12 3 55
v 11 3 54
v 12 3 54
v 16 2 63
v 17 2 63
v 16 2 62
v 17 2 62
v 11 2 55
v 12 2 55
v 11 2 54
v 12 2 54
v -63 7 63
v -43 7 63
v -28 7 63
v 63 7 63
v -43 7 60
v -37 7 60
v -45 7 55
v -37 7 55
v -37 7 46
v -28 7 46
v 18 7 46
v 23 7 46
v -47 7 45
v -45 7 45
v -37 7 40
v -28 7 40
v 23 7 38
v 33 7 38
v -37 7 37
v -28 7 37
v 13 7 35
v 18 7 35
v -26 7 26
v -15 7 26
v -9 7 26
v 5 7 26
v -47 7 25
v -37 7 25
v 30 7 24
v 33 7 24
v -15 7 13
v -9 7 13
v 23 7 11
v 30 7 11
v -26 7 10
v -23 7 10
v 3 7 10
v 5 7 10
v 13 7 7
v 23 7 7
v -23 7 5
v -15 7 5
v -23 7 4
v -15 7 4
v 33 7 2
v 41 7 2
v 45 7 2
v 55 7 2
v -23 7 -0
v -13 7 -0
v -8 7 -0
v 3 7 -0
v -13 7 -11
v -8 7 -11
v -43 7 -15
v -31 7 -15
v 19 7 -17
v 22 7 -17
v 26 7 -17
v 33 7 -17
v -43 7 -18
v -34 7 -18
v -31 7 -19
v -18 7 -19
v -18 7 -21
v -11 7 -21
v 41 7 -23
v 45 7 -23
v -11 7 -24
v -1 7 -24
v 55 7 -24
v 56 7 -24
v -43 7 -26
v -34 7 -26
v 22 7 -27
v 26 7 -27
v -43 7 -30
v -34 7 -30
v -1 7 -34
v 2 7 -34
v 40 7 -34
v 56 7 -34
v -34 7 -35
v -19 7 -35
v -1 7 -36
v 2 7 -36
v -11 7 -40
v -1 7 -40
v 19 7 -41
v 32 7 -41
v -19 7 -44
v -11 7 -44
v 32 7 -50
v 40 7 -50
v -63 7 -63
v 63 7 -63

# faces
f 3/4/1 2/4/1 1/4/1
f 4/4/1 2/4/1 3/4/1
f 5/2/1 4/2/1 3/2/1
f 6/2/1 4/2/1 5/2/1
f 7/1/1 6/1/1 5/1/1
f 8/1/1 6/1/1 7/1/1
f 11/5/1 10/5/1 9/5/1
f 12/5/1 10/5/1 11/5/1
f 15/5/1 14/5/1 13/5/1
f 16/5/1 14/5/1 15/5/1
f 17/5/2 18/5/2 19/5/2
f 19/5/2 18/5/2 20/5/2
f 21/5/2 22/5/2 23/5/2
f 23/5/2 22/5/2 24/5/2
f 25/5/2 26/5/2 27/5/2
f 27/5/2 26/5/2 28/5/2
f 27/1/2 28/1/2 29/1/2
f 29/1/2 28/1/2 30/1/2
f 35/2/3 33/2/3 32/2/3
f 35/1/3 34/1/3 33/1/3
f 36/1/3 34/1/3 35/1/3
f 37/2/3 35/2/3 32/2/3
f 37/3/3 36/3/3 35/3/3
f 38/3/3 36/3/3 37/3/3
f 39/4/3 32/4/3 31/4/3
f 40/2/3 37/2/3 32/2/3
f 40/4/3 32/4/3 39/4/3
f 41/1/3 38/1/3 37/1/3
f 41/2/3 37/2/3 40/2/3
f 42/4/3 39/4/3 31/4/3
f 43/5/3 40/5/3 39/5/3
f 43/4/3 39/4/3 42/4/3
f 44/4/3 42/4/3 31/4/3
f 44/5/3 43/5/3 42/5/3
f 45/5/3 43/5/3 44/5/3
f 46/5/3 40/5/3 43/5/3
f 46/5/3 43/5/3 45/5/3
f 47/4/3 45/4/3 44/4/3
f 47/4/3 44/4/3 31/4/3
f 48/4/3 45/4/3 47/4/3
f 49/5/3 40/5/3 46/5/3
f 50/5/3 48/5/3 47/5/3
f 50/5/3 49/5/3 48/5/3
f 51/5/3 40/5/3 49/5/3
f 51/5/3 49/5/3 50/5/3
f 51/1/3 41/1/3 40/1/3
f 52/1/3 38/1/3 41/1/3
f 52/1/3 41/1/3 51/1/3
f 55/5/3 54/5/3 53/5/3
f 56/5/3 54/5/3 55/5/3
f 59/5/3 58/5/3 57/5/3
f 60/5/3 58/5/3 59/5/3
f 61/5/4 62/5/4 63/5/4
f 63/5/4 62/5/4 64/5/4
f 65/4/4 66/4/4 69/4/4
f 66/2/4 67/2/4 70/2/4
f 69/4/4 66/4/4 70/4/4
f 67/1/4 68/1/4 71/1/4
f 70/2/4 67/2/4 71/2/4
f 65/4/4 69/4/4 72/4/4
f 69/5/4 70/5/4 73/5/4
f 72/4/4 69/4/4 73/4/4
f 72/5/4 73/5/4 74/5/4
f 73/5/4 70/5/4 75/5/4
f 74/5/4 73/5/4 75/5/4
f 74/4/4 75/4/4 76/4/4
f 75/5/4 70/5/4 77/5/4
f 76/4/4 75/4/4 77/4/4
f 76/5/4 77/5/4 78/5/4
f 70/1/4 71/1/4 79/1/4
f 78/5/4 77/5/4 79/5/4
f 77/5/4 70/5/4 79/5/4
f 71/1/4 68/1/4 80/1/4
f 79/1/4 71/1/4 80/1/4
f 84/4/5 82/4/5 81/4/5
f 85/5/5 83/5/5 82/5/5
f 85/4/5 82/4/5 84/4/5
f 86/4/5 84/4/5 81/4/5
f 87/5/5 85/5/5 84/5/5
f 87/4/5 84/4/5 86/4/5
f 88/4/5 86/4/5 81/4/5
f 89/5/5 87/5/5 86/5/5
f 89/4/5 86/4/5 88/4/5
f 90/4/5 88/4/5 81/4/5
f 91/5/5 89/5/5 88/5/5
f 91/4/5 88/4/5 90/4/5
f 92/4/5 90/4/5 81/4/5
f 93/5/5 91/5/5 90/5/5
f 93/4/5 90/4/5 92/4/5
f 94/4/5 92/4/5 81/4/5
f 95/5/5 93/5/5 92/5/5
f 95/4/5 92/4/5 94/4/5
f 96/4/5 94/4/5 81/4/5
f 97/5/5 95/5/5 94/5/5
f 97/4/5 94/4/5 96/4/5
f 98/4/5 96/4/5 81/4/5
f 99/5/5 97/5/5 96/5/5
f 99/4/5 96/4/5 98/4/5
f 100/4/5 98/4/5 81/4/5
f 101/5/5 99/5/5 98/5/5
f 101/4/5 98/4/5 100/4/5
f 102/4/5 100/4/5 81/4/5
f 103/5/5 101/5/5 100/5/5
f 103/4/5 100/4/5 102/4/5
f 104/4/5 102/4/5 81/4/5
f 105/5/5 103/5/5 102/5/5
f 105/4/5 102/4/5 104/4/5
f 106/4/5 104/4/5 81/4/5
f 107/5/5 105/5/5 104/5/5
f 107/4/5 104/4/5 106/4/5
f 108/4/5 106/4/5 81/4/5
f 109/5/5 107/5/5 106/5/5
f 109/4/5 106/4/5 108/4/5
f 110/4/5 108/4/5 81/4/5
f 111/5/5 109/5/5 108/5/5
f 111/4/5 108/4/5 110/4/5
f 112/4/5 110/4/5 81/4/5
f 113/5/5 111/5/5 110/5/5
f 113/4/5 110/4/5 112/4/5
f 114/4/5 112/4/5 81/4/5
f 115/5/5 113/5/5 112/5/5
f 115/4/5 112/4/5 114/4/5
f 116/4/5 114/4/5 81/4/5
f 117/5/5 115/5/5 114/5/5
f 117/4/5 114/4/5 116/4/5
f 118/4/5 116/4/5 81/4/5
f 119/4/5 116/4/5 118/4/5
f 120/5/5 119/5/5 118/5/5
f 120/4/5 116/4/5 119/4/5
f 121/4/5 116/4/5 120/4/5
f 122/4/5 118/4/5 81/4/5
f 123/5/5 120/5/5 118/5/5
f 123/4/5 118/4/5 122/4/5
f 123/5/5 121/5/5 120/5/5
f 124/4/5 116/4/5 121/4/5
f 124/5/5 121/5/5 123/5/5
f 124/5/5 123/5/5 122/5/5
f 125/5/5 117/5/5 116/5/5
f 125/4/5 116/4/5 124/4/5
f 126/4/5 122/4/5 81/4/5
f 127/5/5 124/5/5 122/5/5
f 127/4/5 122/4/5 126/4/5
f 127/5/5 125/5/5 124/5/5
f 128/4/5 126/4/5 81/4/5
f 128/5/5 127/5/5 126/5/5
f 129/5/5 125/5/5 127/5/5
f 129/5/5 127/5/5 128/5/5
f 130/4/5 129/4/5 128/4/5
f 130/5/5 125/5/5 129/5/5
f 131/5/5 125/5/5 130/5/5
f 132/4/5 131/4/5 130/4/5
f 132/5/5 125/5/5 131/5/5
f 133/5/5 125/5/5 132/5/5
f 134/4/5 133/4/5 132/4/5
f 134/5/5 125/5/5 133/5/5
f 135/5/5 125/5/5 134/5/5
f 136/4/5 135/4/5 134/4/5
f 136/5/5 125/5/5 135/5/5
f 137/5/5 125/5/5 136/5/5
f 138/5/5 111/5/5 113/5/5
f 138/5/5 125/5/5 137/5/5
f 138/5/5 113/5/5 115/5/5
f 138/5/5 115/5/5 117/5/5
f 138/5/5 117/5/5 125/5/5
f 139/5/5 109/5/5 111/5/5
f 139/5/5 111/5/5 138/5/5
f 140/5/5 138/5/5 137/5/5
f 140/4/5 137/4/5 136/4/5
f 141/5/5 138/5/5 140/5/5
f 142/4/5 141/4/5 140/4/5
f 142/5/5 138/5/5 141/5/5
f 143/5/5 138/5/5 142/5/5
f 144/4/5 139/4/5 138/4/5
f 144/5/5 138/5/5 143/5/5
f 145/5/5 109/5/5 139/5/5
f 145/4/5 139/4/5 144/4/5
f 146/5/5 107/5/5 109/5/5
f 146/5/5 109/5/5 145/5/5
f 147/4/5 146/4/5 145/4/5
f 147/5/5 107/5/5 146/5/5
f 148/5/5 105/5/5 107/5/5
f 148/5/5 107/5/5 147/5/5
f 149/5/5 145/5/5 144/5/5
f 149/5/5 144/5/5 143/5/5
f 149/4/5 143/4/5 142/4/5
f 150/5/5 145/5/5 149/5/5
f 151/4/5 147/4/5 145/4/5
f 151/5/5 145/5/5 150/5/5
f 151/4/5 148/4/5 147/4/5
f 152/4/5 148/4/5 151/4/5
f 153/5/5 105/5/5 148/5/5
f 153/4/5 148/4/5 152/4/5
f 154/5/5 103/5/5 105/5/5
f 154/5/5 105/5/5 153/5/5
f 155/4/5 150/4/5 149/4/5
f 155/5/5 152/5/5 151/5/5
f 155/5/5 151/5/5 150/5/5
f 156/5/5 152/5/5 155/5/5
f 157/4/5 153/4/5 152/4/5
f 157/5/5 152/5/5 156/5/5
f 157/4/5 154/4/5 153/4/5
f 158/4/5 154/4/5 157/4/5
f 159/4/5 156/4/5 155/4/5
f 159/5/5 157/5/5 156/5/5
f 159/5/5 158/5/5 157/5/5
f 160/5/5 158/5/5 159/5/5
f 161/4/5 154/4/5 158/4/5
f 161/5/5 103/5/5 154/5/5
f 162/5/5 101/5/5 103/5/5
f 162/5/5 103/5/5 161/5/5
f 163/4/5 161/4/5 158/4/5
f 163/5/5 158/5/5 160/5/5
f 163/4/5 162/4/5 161/4/5
f 164/4/5 162/4/5 163/4/5
f 165/4/5 160/4/5 159/4/5
f 165/5/5 163/5/5 160/5/5
f 165/5/5 164/5/5 163/5/5
f 166/5/5 164/5/5 165/5/5
f 167/5/5 101/5/5 162/5/5
f 167/4/5 162/4/5 164/4/5
f 168/5/5 99/5/5 101/5/5
f 168/5/5 101/5/5 167/5/5
f 169/5/5 164/5/5 166/5/5
f 169/4/5 166/4/5 165/4/5
f 170/5/5 164/5/5 169/5/5
f 171/4/5 167/4/5 164/4/5
f 171/5/5 164/5/5 170/5/5
f 171/4/5 168/4/5 167/4/5
f 172/4/5 168/4/5 171/4/5
f 173/4/5 170/4/5 169/4/5
f 173/5/5 171/5/5 170/5/5
f 173/5/5 172/5/5 171/5/5
f 174/5/5 172/5/5 173/5/5
f 175/4/5 168/4/5 172/4/5
f 175/5/5 99/5/5 168/5/5
f 176/5/5 97/5/5 99/5/5
f 176/5/5 99/5/5 175/5/5
f 177/4/5 175/4/5 172/4/5
f 177/5/5 172/5/5 174/5/5
f 177/4/5 176/4/5 175/4/5
f 178/4/5 176/4/5 177/4/5
f 179/4/5 174/4/5 173/4/5
f 179/5/5 177/5/5 174/5/5
f 179/5/5 178/5/5 177/5/5
f 180/5/5 178/5/5 179/5/5
f 181/5/5 97/5/5 176/5/5
f 181/4/5 176/4/5 178/4/5
f 182/5/5 95/5/5 97/5/5
f 182/5/5 97/5/5 181/5/5
f 183/5/5 178/5/5 180/5/5
f 183/4/5 180/4/5 179/4/5
f 184/5/5 178/5/5 183/5/5
f 185/4/5 181/4/5 178/4/5
f 185/5/5 178/5/5 184/5/5
f 185/4/5 182/4/5 181/4/5
f 186/4/5 182/4/5 185/4/5
f 187/5/5 95/5/5 182/5/5
f 187/4/5 182/4/5 186/4/5
f 188/5/5 93/5/5 95/5/5
f 188/5/5 95/5/5 187/5/5
f 189/4/5 184/4/5 183/4/5
f 189/5/5 186/5/5 185/5/5
f 189/5/5 185/5/5 184/5/5
f 190/5/5 186/5/5 189/5/5
f 191/4/5 187/4/5 186/4/5
f 191/5/5 186/5/5 190/5/5
f 191/4/5 188/4/5 187/4/5
f 192/4/5 188/4/5 191/4/5
f 193/5/5 93/5/5 188/5/5
f 193/4/5 188/4/5 192/4/5
f 194/5/5 91/5/5 93/5/5
f 194/5/5 93/5/5 193/5/5
f 195/4/5 193/4/5 192/4/5
f 195/5/5 192/5/5 191/5/5
f 195/4/5 194/4/5 193/4/5
f 195/5/5 191/5/5 190/5/5
f 196/4/5 194/4/5 195/4/5
f 197/4/5 190/4/5 189/4/5
f 197/5/5 195/5/5 190/5/5
f 197/5/5 196/5/5 195/5/5
f 198/5/5 196/5/5 197/5/5
f 199/5/5 91/5/5 194/5/5
f 199/4/5 194/4/5 196/4/5
f 200/5/5 89/5/5 91/5/5
f 200/5/5 91/5/5 199/5/5
f 201/4/5 199/4/5 196/4/5
f 201/5/5 196/5/5 198/5/5
f 201/4/5 200/4/5 199/4/5
f 202/4/5 200/4/5 201/4/5
f 203/4/5 198/4/5 197/4/5
f 203/5/5 201/5/5 198/5/5
f 203/5/5 202/5/5 201/5/5
f 204/5/5 202/5/5 203/5/5
f 205/4/5 200/4/5 202/4/5
f 205/5/5 202/5/5 204/5/5
f 206/5/5 89/5/5 200/5/5
f 206/4/5 200/4/5 205/4/5
f 207/5/5 87/5/5 89/5/5
f 207/5/5 89/5/5 206/5/5
f 208/4/5 204/4/5 203/4/5
f 208/4/5 203/4/5 197/4/5
f 209/5/5 206/5/5 205/5/5
f 209/4/5 204/4/5 208/4/5
f 209/5/5 205/5/5 204/5/5
f 210/5/5 209/5/5 208/5/5
f 210/5/5 206/5/5 209/5/5
f 211/4/5 207/4/5 206/4/5
f 211/5/5 206/5/5 210/5/5
f 212/4/5 208/4/5 197/4/5
f 212/4/5 197/4/5 189/4/5
f 213/5/5 210/5/5 208/5/5
f 213/4/5 208/4/5 212/4/5
f 214/4/5 207/4/5 211/4/5
f 214/4/5 211/4/5 210/4/5
f 215/5/5 87/5/5 207/5/5
f 215/4/5 207/4/5 214/4/5
f 216/4/5 212/4/5 189/4/5
f 216/4/5 189/4/5 183/4/5
f 217/5/5 213/5/5 212/5/5
f 217/4/5 212/4/5 216/4/5
f 218/5/5 210/5/5 213/5/5
f 218/5/5 213/5/5 217/5/5
f 218/5/5 217/5/5 216/5/5
f 219/4/5 214/4/5 210/4/5
f 219/5/5 210/5/5 218/5/5
f 220/4/5 216/4/5 183/4/5
f 220/4/5 183/4/5 179/4/5
f 221/5/5 218/5/5 216/5/5
f 221/4/5 216/4/5 220/4/5
f 222/4/5 214/4/5 219/4/5
f 222/4/5 219/4/5 218/4/5
f 223/5/5 215/5/5 214/5/5
f 223/4/5 214/4/5 222/4/5
f 224/4/5 220/4/5 179/4/5
f 224/4/5 179/4/5 173/4/5
f 225/5/5 221/5/5 220/5/5
f 225/4/5 220/4/5 224/4/5
f 226/4/5 173/4/5 169/4/5
f 226/4/5 224/4/5 173/4/5
f 226/4/5 169/4/5 165/4/5
f 227/5/5 225/5/5 224/5/5
f 227/4/5 224/4/5 226/4/5
f 228/5/5 218/5/5 221/5/5
f 228/5/5 225/5/5 227/5/5
f 228/5/5 221/5/5 225/5/5
f 229/4/5 222/4/5 218/4/5
f 229/5/5 218/5/5 228/5/5
f 230/4/5 165/4/5 159/4/5
f 230/4/5 226/4/5 165/4/5
f 231/5/5 227/5/5 226/5/5
f 231/4/5 226/4/5 230/4/5
f 231/5/5 228/5/5 227/5/5
f 232/4/5 222/4/5 229/4/5
f 232/4/5 229/4/5 228/4/5
f 233/5/5 223/5/5 222/5/5
f 233/4/5 222/4/5 232/4/5
f 234/4/5 230/4/5 159/4/5
f 234/4/5 159/4/5 155/4/5
f 234/4/5 155/4/5 149/4/5
f 235/5/5 231/5/5 230/5/5
f 235/4/5 230/4/5 234/4/5
f 236/4/5 234/4/5 149/4/5
f 236/4/5 149/4/5 142/4/5
f 236/4/5 142/4/5 140/4/5
f 237/5/5 235/5/5 234/5/5
f 237/4/5 234/4/5 236/4/5
f 238/5/5 228/5/5 231/5/5
f 238/5/5 235/5/5 237/5/5
f 238/5/5 231/5/5 235/5/5
f 239/4/5 232/4/5 228/4/5
f 239/5/5 228/5/5 238/5/5
f 240/4/5 132/4/5 130/4/5
f 240/4/5 130/4/5 128/4/5
f 240/4/5 136/4/5 134/4/5
f 240/4/5 134/4/5 132/4/5
f 240/4/5 236/4/5 140/4/5
f 240/4/5 128/4/5 81/4/5
f 240/4/5 140/4/5 136/4/5
f 241/5/5 237/5/5 236/5/5
f 241/4/5 236/4/5 240/4/5
f 241/5/5 238/5/5 237/5/5
f 242/4/5 239/4/5 238/4/5
f 242/5/5 238/5/5 241/5/5
f 243/5/5 233/5/5 232/5/5
f 243/4/5 239/4/5 242/4/5
f 243/4/5 232/4/5 239/4/5
f 244/5/5 83/5/5 85/5/5
f 244/5/5 233/5/5 243/5/5
f 244/5/5 85/5/5 87/5/5
f 244/5/5 87/5/5 215/5/5
f 244/5/5 223/5/5 233/5/5
f 244/5/5 215/5/5 223/5/5
f 247/5/5 246/5/5 245/5/5
f 248/5/5 246/5/5 247/5/5
f 251/5/5 250/5/5 249/5/5
f 252/5/5 250/5/5 251/5/5
f 253/4/6 254/4/6 255/4/6
f 255/4/6 254/4/6 256/4/6
f 257/4/6 258/4/6 259/4/6
f 259/4/6 258/4/6 260/4/6
f 261/1/6 262/1/6 265/1/6
f 262/3/6 263/3/6 265/3/6
f 265/3/6 263/3/6 266/3/6
f 261/1/6 265/1/6 267/1/6
f 265/1/6 266/1/6 267/1/6
f 266/3/6 263/3/6 268/3/6
f 267/1/6 266/1/6 268/1/6
f 267/3/6 268/3/6 269/3/6
f 268/3/6 263/3/6 269/3/6
f 263/1/6 264/1/6 270/1/6
f 269/3/6 263/3/6 270/3/6
f 270/1/6 264/1/6 271/1/6
f 271/1/6 264/1/6 272/1/6
f 261/1/6 267/1/6 273/1/6
f 267/3/6 269/3/6 274/3/6
f 273/1/6 267/1/6 274/1/6
f 269/1/6 270/1/6 275/1/6
f 274/3/6 269/3/6 275/3/6
f 273/3/6 274/3/6 275/3/6
f 270/1/6 271/1/6 275/1/6
f 275/1/6 271/1/6 276/1/6
f 272/1/6 264/1/6 277/1/6
f 271/3/6 272/3/6 277/3/6
f 277/1/6 264/1/6 278/1/6
f 275/3/6 276/3/6 279/3/6
f 273/3/6 275/3/6 279/3/6
f 276/1/6 271/1/6 280/1/6
f 279/3/6 276/3/6 280/3/6
f 279/1/6 280/1/6 281/1/6
f 280/1/6 271/1/6 281/1/6
f 277/3/6 278/3/6 282/3/6
f 281/1/6 271/1/6 282/1/6
f 271/3/6 277/3/6 282/3/6
f 279/1/6 281/1/6 283/1/6
f 283/1/6 281/1/6 284/1/6
f 284/1/6 281/1/6 285/1/6
f 285/1/6 281/1/6 286/1/6
f 261/1/6 273/1/6 287/1/6
f 273/3/6 279/3/6 287/3/6
f 279/1/6 283/1/6 288/1/6
f 287/3/6 279/3/6 288/3/6
f 282/3/6 278/3/6 289/3/6
f 281/3/6 282/3/6 289/3/6
f 278/1/6 264/1/6 290/1/6
f 289/3/6 278/3/6 290/3/6
f 283/3/6 284/3/6 291/3/6
f 284/1/6 285/1/6 291/1/6
f 285/3/6 286/3/6 292/3/6
f 291/1/6 285/1/6 292/1/6
f 281/3/6 289/3/6 293/3/6
f 289/1/6 290/1/6 294/1/6
f 293/3/6 289/3/6 294/3/6
f 283/3/6 291/3/6 295/3/6
f 288/1/6 283/1/6 295/1/6
f 287/1/6 288/1/6 295/1/6
f 291/3/6 292/3/6 295/3/6
f 295/3/6 292/3/6 296/3/6
f 292/3/6 286/3/6 297/3/6
f 296/3/6 292/3/6 297/3/6
f 286/1/6 281/1/6 298/1/6
f 297/3/6 286/3/6 298/3/6
f 281/3/6 293/3/6 299/3/6
f 298/1/6 281/1/6 299/1/6
f 297/1/6 298/1/6 299/1/6
f 293/1/6 294/1/6 300/1/6
f 299/3/6 293/3/6 300/3/6
f 296/3/6 297/3/6 301/3/6
f 295/1/6 296/1/6 301/1/6
f 301/3/6 297/3/6 302/3/6
f 295/1/6 301/1/6 303/1/6
f 301/1/6 302/1/6 303/1/6
f 302/3/6 297/3/6 304/3/6
f 303/1/6 302/1/6 304/1/6
f 300/1/6 294/1/6 305/1/6
f 294/1/6 290/1/6 305/1/6
f 299/1/6 300/1/6 305/1/6
f 290/1/6 264/1/6 305/1/6
f 305/1/6 264/1/6 306/1/6
f 306/1/6 264/1/6 307/1/6
f 307/1/6 264/1/6 308/1/6
f 303/3/6 304/3/6 309/3/6
f 295/1/6 303/1/6 309/1/6
f 304/3/6 297/3/6 310/3/6
f 309/3/6 304/3/6 310/3/6
f 310/3/6 297/3/6 311/3/6
f 297/1/6 299/1/6 312/1/6
f 311/3/6 297/3/6 312/3/6
f 299/1/6 305/1/6 312/1/6
f 310/3/6 311/3/6 313/3/6
f 309/1/6 310/1/6 313/1/6
f 311/1/6 312/1/6 314/1/6
f 313/3/6 311/3/6 314/3/6
f 295/1/6 309/1/6 315/1/6
f 287/1/6 295/1/6 315/1/6
f 313/1/6 314/1/6 315/1/6
f 309/1/6 313/1/6 315/1/6
f 315/1/6 314/1/6 316/1/6
f 314/1/6 312/1/6 317/1/6
f 316/1/6 314/1/6 317/1/6
f 312/1/6 305/1/6 317/1/6
f 317/1/6 305/1/6 318/1/6
f 318/1/6 305/1/6 319/1/6
f 305/3/6 306/3/6 320/3/6
f 319/1/6 305/1/6 320/1/6
f 315/3/6 316/3/6 321/3/6
f 287/1/6 315/1/6 321/1/6
f 321/3/6 316/3/6 322/3/6
f 316/1/6 317/1/6 323/1/6
f 322/3/6 316/3/6 323/3/6
f 323/1/6 317/1/6 324/1/6
f 323/3/6 324/3/6 325/3/6
f 324/1/6 317/1/6 325/1/6
f 325/1/6 317/1/6 326/1/6
f 320/3/6 306/3/6 327/3/6
f 319/3/6 320/3/6 327/3/6
f 306/1/6 307/1/6 327/1/6
f 307/3/6 308/3/6 328/3/6
f 327/1/6 307/1/6 328/1/6
f 326/1/6 317/1/6 329/1/6
f 325/3/6 326/3/6 329/3/6
f 329/1/6 317/1/6 330/1/6
f 328/3/6 308/3/6 331/3/6
f 308/1/6 264/1/6 331/1/6
f 327/3/6 328/3/6 331/3/6
f 331/1/6 264/1/6 332/1/6
f 321/1/6 322/1/6 333/1/6
f 287/1/6 321/1/6 333/1/6
f 329/3/6 330/3/6 334/3/6
f 333/1/6 322/1/6 334/1/6
f 325/3/6 329/3/6 334/3/6
f 323/3/6 325/3/6 334/3/6
f 322/3/6 323/3/6 334/3/6
f 318/1/6 319/1/6 335/1/6
f 317/3/6 318/3/6 335/3/6
f 319/3/6 327/3/6 336/3/6
f 335/1/6 319/1/6 336/1/6
f 327/3/6 331/3/6 336/3/6
f 331/3/6 332/3/6 336/3/6
f 287/1/6 333/1/6 337/1/6
f 333/3/6 334/3/6 337/3/6
f 334/3/6 330/3/6 338/3/6
f 337/3/6 334/3/6 338/3/6
f 330/1/6 317/1/6 339/1/6
f 338/3/6 330/3/6 339/3/6
f 339/1/6 317/1/6 340/1/6
f 336/3/6 332/3/6 341/3/6
f 335/3/6 336/3/6 341/3/6
f 332/1/6 264/1/6 342/1/6
f 341/3/6 332/3/6 342/3/6
f 337/1/6 338/1/6 343/1/6
f 339/3/6 340/3/6 343/3/6
f 338/3/6 339/3/6 343/3/6
f 343/3/6 340/3/6 344/3/6
f 344/3/6 340/3/6 345/3/6
f 340/1/6 317/1/6 346/1/6
f 345/3/6 340/3/6 346/3/6
f 344/3/6 345/3/6 347/3/6
f 345/1/6 346/1/6 348/1/6
f 347/3/6 345/3/6 348/3/6
f 346/1/6 317/1/6 349/1/6
f 348/1/6 346/1/6 349/1/6
f 347/1/6 348/1/6 349/1/6
f 317/3/6 335/3/6 349/3/6
f 335/3/6 341/3/6 349/3/6
f 349/3/6 341/3/6 350/3/6
f 344/3/6 347/3/6 351/3/6
f 343/1/6 344/1/6 351/1/6
f 349/1/6 350/1/6 352/1/6
f 351/3/6 347/3/6 352/3/6
f 347/1/6 349/1/6 352/1/6
f 350/3/6 341/3/6 353/3/6
f 352/1/6 350/1/6 353/1/6
f 351/1/6 352/1/6 353/1/6
f 341/1/6 342/1/6 354/1/6
f 353/3/6 341/3/6 354/3/6
f 287/1/6 337/1/6 355/1/6
f 343/1/6 351/1/6 355/1/6
f 353/1/6 354/1/6 355/1/6
f 261/1/6 287/1/6 355/1/6
f 337/1/6 343/1/6 355/1/6
f 351/1/6 353/1/6 355/1/6
f 342/1/6 264/1/6 356/1/6
f 355/1/6 354/1/6 356/1/6
f 354/1/6 342/1/6 356/1/6
