# MagicaVoxel @ Ephtracy

# group
g Tiny Staff

# material
mtllib Tiny Staff.mtl
usemtl palette

# normals
vn -1 0 0
vn 1 0 0
vn 0 0 1
vn 0 0 -1
vn 0 -1 0
vn 0 1 0

# texcoords
vt 0.939453 0.5
vt 0.970703 0.5
vt 0.974609 0.5
vt 0.978516 0.5
vt 0.982422 0.5
vt 0.994141 0.5

# verts
v -6 14 0.5
v -6 14 -0.5
v -6 16 0.5
v -6 16 -0.5
v -5 13 0.5
v -5 13 -0.5
v -5 14 0.5
v -5 14 -0.5
v -5 16 0.5
v -5 16 -0.5
v -5 17 0.5
v -5 17 -0.5
v -4 12 0.5
v -4 12 -0.5
v -4 13 0.5
v -4 13 -0.5
v -4 17 0.5
v -4 17 -0.5
v -4 18 0.5
v -4 18 -0.5
v -3 11 0.5
v -3 11 -0.5
v -3 12 0.5
v -3 12 -0.5
v -3 18 0.5
v -3 18 -0.5
v -3 19 0.5
v -3 19 -0.5
v -2 19 0.5
v -2 19 -0.5
v -2 20 0.5
v -2 20 -0.5
v -1 1 0.5
v -1 1 -0.5
v -1 11 0.5
v -1 11 -0.5
v -1 20 0.5
v -1 20 -0.5
v -1 21 0.5
v -1 21 -0.5
v 0 0 0.5
v 0 0 -0.5
v 0 1 0.5
v 0 1 -0.5
v 1 14 0.5
v 1 14 -0.5
v 1 16 0.5
v 1 16 -0.5
v -1 14 0.5
v -1 14 -0.5
v -1 16 0.5
v -1 16 -0.5
v 1 20 0.5
v 1 20 -0.5
v 1 21 0.5
v 1 21 -0.5
v 2 0 0.5
v 2 0 -0.5
v 2 1 0.5
v 2 1 -0.5
v 2 19 0.5
v 2 19 -0.5
v 2 20 0.5
v 2 20 -0.5
v 3 1 0.5
v 3 1 -0.5
v 3 12 0.5
v 3 12 -0.5
v 3 18 0.5
v 3 18 -0.5
v 3 19 0.5
v 3 19 -0.5
v 4 12 0.5
v 4 12 -0.5
v 4 13 0.5
v 4 13 -0.5
v 4 17 0.5
v 4 17 -0.5
v 4 18 0.5
v 4 18 -0.5
v 5 13 0.5
v 5 13 -0.5
v 5 14 0.5
v 5 14 -0.5
v 5 16 0.5
v 5 16 -0.5
v 5 17 0.5
v 5 17 -0.5
v 6 14 0.5
v 6 14 -0.5
v 6 16 0.5
v 6 16 -0.5
v -6 14 0.5
v -6 16 0.5
v -5 13 0.5
v -5 14 0.5
v -5 16 0.5
v -5 17 0.5
v -4 12 0.5
v -4 13 0.5
v -4 14 0.5
v -4 16 0.5
v -4 17 0.5
v -4 18 0.5
v -3 11 0.5
v -3 12 0.5
v -3 13 0.5
v -3 17 0.5
v -3 18 0.5
v -3 19 0.5
v -2 13 0.5
v -2 14 0.5
v -2 16 0.5
v -2 18 0.5
v -2 19 0.5
v -2 20 0.5
v -1 1 0.5
v -1 11 0.5
v -1 12 0.5
v -1 14 0.5
v -1 16 0.5
v -1 17 0.5
v -1 19 0.5
v -1 20 0.5
v -1 21 0.5
v 0 0 0.5
v 0 1 0.5
v 0 2 0.5
v 0 5 0.5
v 0 6 0.5
v 0 7 0.5
v 0 8 0.5
v 0 13 0.5
v 1 13 0.5
v 1 14 0.5
v 1 16 0.5
v 1 17 0.5
v 1 19 0.5
v 1 20 0.5
v 1 21 0.5
v 2 0 0.5
v 2 1 0.5
v 2 2 0.5
v 2 5 0.5
v 2 6 0.5
v 2 7 0.5
v 2 8 0.5
v 2 12 0.5
v 2 14 0.5
v 2 15 0.5
v 2 16 0.5
v 2 18 0.5
v 2 19 0.5
v 2 20 0.5
v 3 1 0.5
v 3 12 0.5
v 3 13 0.5
v 3 14 0.5
v 3 15 0.5
v 3 16 0.5
v 3 17 0.5
v 3 18 0.5
v 3 19 0.5
v 4 12 0.5
v 4 13 0.5
v 4 14 0.5
v 4 15 0.5
v 4 16 0.5
v 4 17 0.5
v 4 18 0.5
v 5 13 0.5
v 5 14 0.5
v 5 15 0.5
v 5 16 0.5
v 5 17 0.5
v 6 14 0.5
v 6 16 0.5
v -6 14 -0.5
v -6 16 -0.5
v -5 13 -0.5
v -5 14 -0.5
v -5 16 -0.5
v -5 17 -0.5
v -4 12 -0.5
v -4 13 -0.5
v -4 14 -0.5
v -4 16 -0.5
v -4 17 -0.5
v -4 18 -0.5
v -3 11 -0.5
v -3 12 -0.5
v -3 13 -0.5
v -3 17 -0.5
v -3 18 -0.5
v -3 19 -0.5
v -2 13 -0.5
v -2 14 -0.5
v -2 16 -0.5
v -2 18 -0.5
v -2 19 -0.5
v -2 20 -0.5
v -1 1 -0.5
v -1 11 -0.5
v -1 12 -0.5
v -1 14 -0.5
v -1 16 -0.5
v -1 17 -0.5
v -1 19 -0.5
v -1 20 -0.5
v -1 21 -0.5
v 0 0 -0.5
v 0 1 -0.5
v 0 2 -0.5
v 0 5 -0.5
v 0 6 -0.5
v 0 7 -0.5
v 0 8 -0.5
v 0 13 -0.5
v 1 13 -0.5
v 1 14 -0.5
v 1 16 -0.5
v 1 17 -0.5
v 1 19 -0.5
v 1 20 -0.5
v 1 21 -0.5
v 2 0 -0.5
v 2 1 -0.5
v 2 2 -0.5
v 2 5 -0.5
v 2 6 -0.5
v 2 7 -0.5
v 2 8 -0.5
v 2 12 -0.5
v 2 14 -0.5
v 2 15 -0.5
v 2 16 -0.5
v 2 18 -0.5
v 2 19 -0.5
v 2 20 -0.5
v 3 1 -0.5
v 3 12 -0.5
v 3 13 -0.5
v 3 14 -0.5
v 3 15 -0.5
v 3 16 -0.5
v 3 17 -0.5
v 3 18 -0.5
v 3 19 -0.5
v 4 12 -0.5
v 4 13 -0.5
v 4 14 -0.5
v 4 15 -0.5
v 4 16 -0.5
v 4 17 -0.5
v 4 18 -0.5
v 5 13 -0.5
v 5 14 -0.5
v 5 15 -0.5
v 5 16 -0.5
v 5 17 -0.5
v 6 14 -0.5
v 6 16 -0.5
v 0 0 0.5
v 2 0 0.5
v 0 0 -0.5
v 2 0 -0.5
v -1 1 0.5
v 0 1 0.5
v 2 1 0.5
v 3 1 0.5
v -1 1 -0.5
v 0 1 -0.5
v 2 1 -0.5
v 3 1 -0.5
v -3 11 0.5
v -1 11 0.5
v -3 11 -0.5
v -1 11 -0.5
v -4 12 0.5
v -3 12 0.5
v 3 12 0.5
v 4 12 0.5
v -4 12 -0.5
v -3 12 -0.5
v 3 12 -0.5
v 4 12 -0.5
v -5 13 0.5
v -4 13 0.5
v 4 13 0.5
v 5 13 0.5
v -5 13 -0.5
v -4 13 -0.5
v 4 13 -0.5
v 5 13 -0.5
v -6 14 0.5
v -5 14 0.5
v 5 14 0.5
v 6 14 0.5
v -6 14 -0.5
v -5 14 -0.5
v 5 14 -0.5
v 6 14 -0.5
v -1 16 0.5
v 1 16 0.5
v -1 16 -0.5
v 1 16 -0.5
v -1 14 0.5
v 1 14 0.5
v -1 14 -0.5
v 1 14 -0.5
v -6 16 0.5
v -5 16 0.5
v 5 16 0.5
v 6 16 0.5
v -6 16 -0.5
v -5 16 -0.5
v 5 16 -0.5
v 6 16 -0.5
v -5 17 0.5
v -4 17 0.5
v 4 17 0.5
v 5 17 0.5
v -5 17 -0.5
v -4 17 -0.5
v 4 17 -0.5
v 5 17 -0.5
v -4 18 0.5
v -3 18 0.5
v 3 18 0.5
v 4 18 0.5
v -4 18 -0.5
v -3 18 -0.5
v 3 18 -0.5
v 4 18 -0.5
v -3 19 0.5
v -2 19 0.5
v 2 19 0.5
v 3 19 0.5
v -3 19 -0.5
v -2 19 -0.5
v 2 19 -0.5
v 3 19 -0.5
v -2 20 0.5
v -1 20 0.5
v 1 20 0.5
v 2 20 0.5
v -2 20 -0.5
v -1 20 -0.5
v 1 20 -0.5
v 2 20 -0.5
v -1 21 0.5
v 1 21 0.5
v -1 21 -0.5
v 1 21 -0.5

# faces
f 3/6/1 2/6/1 1/6/1
f 4/6/1 2/6/1 3/6/1
f 7/6/1 6/6/1 5/6/1
f 8/6/1 6/6/1 7/6/1
f 11/6/1 10/6/1 9/6/1
f 12/6/1 10/6/1 11/6/1
f 15/6/1 14/6/1 13/6/1
f 16/6/1 14/6/1 15/6/1
f 19/6/1 18/6/1 17/6/1
f 20/6/1 18/6/1 19/6/1
f 23/6/1 22/6/1 21/6/1
f 24/6/1 22/6/1 23/6/1
f 27/6/1 26/6/1 25/6/1
f 28/6/1 26/6/1 27/6/1
f 31/6/1 30/6/1 29/6/1
f 32/6/1 30/6/1 31/6/1
f 35/6/1 34/6/1 33/6/1
f 36/6/1 34/6/1 35/6/1
f 39/6/1 38/6/1 37/6/1
f 40/6/1 38/6/1 39/6/1
f 43/6/1 42/6/1 41/6/1
f 44/6/1 42/6/1 43/6/1
f 47/6/1 46/6/1 45/6/1
f 48/6/1 46/6/1 47/6/1
f 49/6/2 50/6/2 51/6/2
f 51/6/2 50/6/2 52/6/2
f 53/6/2 54/6/2 55/6/2
f 55/6/2 54/6/2 56/6/2
f 57/6/2 58/6/2 59/6/2
f 59/6/2 58/6/2 60/6/2
f 61/6/2 62/6/2 63/6/2
f 63/6/2 62/6/2 64/6/2
f 65/6/2 66/6/2 67/6/2
f 67/6/2 66/6/2 68/6/2
f 69/6/2 70/6/2 71/6/2
f 71/6/2 70/6/2 72/6/2
f 73/6/2 74/6/2 75/6/2
f 75/6/2 74/6/2 76/6/2
f 77/6/2 78/6/2 79/6/2
f 79/6/2 78/6/2 80/6/2
f 81/6/2 82/6/2 83/6/2
f 83/6/2 82/6/2 84/6/2
f 85/6/2 86/6/2 87/6/2
f 87/6/2 86/6/2 88/6/2
f 89/6/2 90/6/2 91/6/2
f 91/6/2 90/6/2 92/6/2
f 96/6/3 94/6/3 93/6/3
f 97/6/3 94/6/3 96/6/3
f 100/6/3 96/6/3 95/6/3
f 101/2/3 97/2/3 96/2/3
f 101/6/3 96/6/3 100/6/3
f 102/6/3 98/6/3 97/6/3
f 102/2/3 97/2/3 101/2/3
f 103/6/3 98/6/3 102/6/3
f 106/6/3 100/6/3 99/6/3
f 107/2/3 101/2/3 100/2/3
f 107/2/3 102/2/3 101/2/3
f 107/6/3 100/6/3 106/6/3
f 107/2/3 103/2/3 102/2/3
f 108/6/3 104/6/3 103/6/3
f 108/2/3 103/2/3 107/2/3
f 109/6/3 104/6/3 108/6/3
f 111/4/3 107/4/3 106/4/3
f 111/2/3 108/2/3 107/2/3
f 111/2/3 109/2/3 108/2/3
f 112/2/3 109/2/3 111/2/3
f 113/2/3 109/2/3 112/2/3
f 114/6/3 110/6/3 109/6/3
f 114/2/3 109/2/3 113/2/3
f 115/6/3 110/6/3 114/6/3
f 118/6/3 106/6/3 105/6/3
f 119/4/3 111/4/3 106/4/3
f 119/4/3 112/4/3 111/4/3
f 119/6/3 106/6/3 118/6/3
f 120/6/3 113/6/3 112/6/3
f 120/4/3 112/4/3 119/4/3
f 121/2/3 114/2/3 113/2/3
f 121/6/3 113/6/3 120/6/3
f 121/2/3 115/2/3 114/2/3
f 122/2/3 115/2/3 121/2/3
f 123/6/3 116/6/3 115/6/3
f 123/2/3 115/2/3 122/2/3
f 124/6/3 116/6/3 123/6/3
f 127/6/3 119/6/3 118/6/3
f 127/6/3 118/6/3 117/6/3
f 127/6/3 120/6/3 119/6/3
f 128/6/3 120/6/3 127/6/3
f 129/6/3 120/6/3 128/6/3
f 130/6/3 120/6/3 129/6/3
f 131/6/3 120/6/3 130/6/3
f 132/6/3 120/6/3 131/6/3
f 133/6/3 120/6/3 132/6/3
f 134/2/3 133/2/3 132/2/3
f 134/6/3 120/6/3 133/6/3
f 135/6/3 120/6/3 134/6/3
f 136/6/3 122/6/3 121/6/3
f 137/2/3 124/2/3 123/2/3
f 137/2/3 123/2/3 122/2/3
f 137/6/3 122/6/3 136/6/3
f 138/2/3 124/2/3 137/2/3
f 139/6/3 125/6/3 124/6/3
f 139/2/3 124/2/3 138/2/3
f 140/6/3 125/6/3 139/6/3
f 141/6/3 127/6/3 126/6/3
f 142/3/3 128/3/3 127/3/3
f 142/6/3 127/6/3 141/6/3
f 143/2/3 129/2/3 128/2/3
f 143/3/3 128/3/3 142/3/3
f 144/1/3 130/1/3 129/1/3
f 144/2/3 129/2/3 143/2/3
f 145/2/3 131/2/3 130/2/3
f 145/1/3 130/1/3 144/1/3
f 146/1/3 132/1/3 131/1/3
f 146/2/3 131/2/3 145/2/3
f 147/2/3 135/2/3 134/2/3
f 147/1/3 132/1/3 146/1/3
f 147/2/3 134/2/3 132/2/3
f 148/2/3 135/2/3 147/2/3
f 149/6/3 136/6/3 135/6/3
f 149/2/3 135/2/3 148/2/3
f 150/6/3 136/6/3 149/6/3
f 151/2/3 138/2/3 137/2/3
f 151/6/3 136/6/3 150/6/3
f 151/2/3 137/2/3 136/2/3
f 152/2/3 138/2/3 151/2/3
f 153/6/3 139/6/3 138/6/3
f 153/2/3 138/2/3 152/2/3
f 154/6/3 139/6/3 153/6/3
f 155/6/3 146/6/3 145/6/3
f 155/6/3 148/6/3 147/6/3
f 155/6/3 143/6/3 142/6/3
f 155/6/3 147/6/3 146/6/3
f 155/6/3 144/6/3 143/6/3
f 155/6/3 145/6/3 144/6/3
f 156/2/3 149/2/3 148/2/3
f 156/6/3 148/6/3 155/6/3
f 157/2/3 149/2/3 156/2/3
f 158/5/3 150/5/3 149/5/3
f 158/2/3 149/2/3 157/2/3
f 159/2/3 151/2/3 150/2/3
f 159/5/3 150/5/3 158/5/3
f 159/2/3 152/2/3 151/2/3
f 160/2/3 152/2/3 159/2/3
f 161/2/3 152/2/3 160/2/3
f 162/6/3 153/6/3 152/6/3
f 162/2/3 152/2/3 161/2/3
f 163/6/3 153/6/3 162/6/3
f 164/6/3 157/6/3 156/6/3
f 165/5/3 158/5/3 157/5/3
f 165/6/3 157/6/3 164/6/3
f 166/2/3 159/2/3 158/2/3
f 166/5/3 158/5/3 165/5/3
f 166/2/3 160/2/3 159/2/3
f 167/2/3 160/2/3 166/2/3
f 168/5/3 161/5/3 160/5/3
f 168/2/3 160/2/3 167/2/3
f 169/6/3 162/6/3 161/6/3
f 169/5/3 161/5/3 168/5/3
f 170/6/3 162/6/3 169/6/3
f 171/6/3 166/6/3 165/6/3
f 172/2/3 167/2/3 166/2/3
f 172/6/3 166/6/3 171/6/3
f 173/5/3 168/5/3 167/5/3
f 173/2/3 167/2/3 172/2/3
f 174/6/3 169/6/3 168/6/3
f 174/5/3 168/5/3 173/5/3
f 175/6/3 169/6/3 174/6/3
f 176/6/3 173/6/3 172/6/3
f 176/6/3 174/6/3 173/6/3
f 177/6/3 174/6/3 176/6/3
f 178/6/4 179/6/4 181/6/4
f 181/6/4 179/6/4 182/6/4
f 180/6/4 181/6/4 185/6/4
f 181/2/4 182/2/4 186/2/4
f 185/6/4 181/6/4 186/6/4
f 182/6/4 183/6/4 187/6/4
f 186/2/4 182/2/4 187/2/4
f 187/6/4 183/6/4 188/6/4
f 184/6/4 185/6/4 191/6/4
f 185/2/4 186/2/4 192/2/4
f 186/2/4 187/2/4 192/2/4
f 191/6/4 185/6/4 192/6/4
f 187/2/4 188/2/4 192/2/4
f 188/6/4 189/6/4 193/6/4
f 192/2/4 188/2/4 193/2/4
f 193/6/4 189/6/4 194/6/4
f 191/4/4 192/4/4 196/4/4
f 192/2/4 193/2/4 196/2/4
f 193/2/4 194/2/4 196/2/4
f 196/2/4 194/2/4 197/2/4
f 197/2/4 194/2/4 198/2/4
f 194/6/4 195/6/4 199/6/4
f 198/2/4 194/2/4 199/2/4
f 199/6/4 195/6/4 200/6/4
f 190/6/4 191/6/4 203/6/4
f 191/4/4 196/4/4 204/4/4
f 196/4/4 197/4/4 204/4/4
f 203/6/4 191/6/4 204/6/4
f 197/6/4 198/6/4 205/6/4
f 204/4/4 197/4/4 205/4/4
f 198/2/4 199/2/4 206/2/4
f 205/6/4 198/6/4 206/6/4
f 199/2/4 200/2/4 206/2/4
f 206/2/4 200/2/4 207/2/4
f 200/6/4 201/6/4 208/6/4
f 207/2/4 200/2/4 208/2/4
f 208/6/4 201/6/4 209/6/4
f 203/6/4 204/6/4 212/6/4
f 202/6/4 203/6/4 212/6/4
f 204/6/4 205/6/4 212/6/4
f 212/6/4 205/6/4 213/6/4
f 213/6/4 205/6/4 214/6/4
f 214/6/4 205/6/4 215/6/4
f 215/6/4 205/6/4 216/6/4
f 216/6/4 205/6/4 217/6/4
f 217/6/4 205/6/4 218/6/4
f 217/2/4 218/2/4 219/2/4
f 218/6/4 205/6/4 219/6/4
f 219/6/4 205/6/4 220/6/4
f 206/6/4 207/6/4 221/6/4
f 208/2/4 209/2/4 222/2/4
f 207/2/4 208/2/4 222/2/4
f 221/6/4 207/6/4 222/6/4
f 222/2/4 209/2/4 223/2/4
f 209/6/4 210/6/4 224/6/4
f 223/2/4 209/2/4 224/2/4
f 224/6/4 210/6/4 225/6/4
f 211/6/4 212/6/4 226/6/4
f 212/3/4 213/3/4 227/3/4
f 226/6/4 212/6/4 227/6/4
f 213/2/4 214/2/4 228/2/4
f 227/3/4 213/3/4 228/3/4
f 214/1/4 215/1/4 229/1/4
f 228/2/4 214/2/4 229/2/4
f 215/2/4 216/2/4 230/2/4
f 229/1/4 215/1/4 230/1/4
f 216/1/4 217/1/4 231/1/4
f 230/2/4 216/2/4 231/2/4
f 219/2/4 220/2/4 232/2/4
f 231/1/4 217/1/4 232/1/4
f 217/2/4 219/2/4 232/2/4
f 232/2/4 220/2/4 233/2/4
f 220/6/4 221/6/4 234/6/4
f 233/2/4 220/2/4 234/2/4
f 234/6/4 221/6/4 235/6/4
f 222/2/4 223/2/4 236/2/4
f 235/6/4 221/6/4 236/6/4
f 221/2/4 222/2/4 236/2/4
f 236/2/4 223/2/4 237/2/4
f 223/6/4 224/6/4 238/6/4
f 237/2/4 223/2/4 238/2/4
f 238/6/4 224/6/4 239/6/4
f 230/6/4 231/6/4 240/6/4
f 232/6/4 233/6/4 240/6/4
f 227/6/4 228/6/4 240/6/4
f 231/6/4 232/6/4 240/6/4
f 228/6/4 229/6/4 240/6/4
f 229/6/4 230/6/4 240/6/4
f 233/2/4 234/2/4 241/2/4
f 240/6/4 233/6/4 241/6/4
f 241/2/4 234/2/4 242/2/4
f 234/5/4 235/5/4 243/5/4
f 242/2/4 234/2/4 243/2/4
f 235/2/4 236/2/4 244/2/4
f 243/5/4 235/5/4 244/5/4
f 236/2/4 237/2/4 244/2/4
f 244/2/4 237/2/4 245/2/4
f 245/2/4 237/2/4 246/2/4
f 237/6/4 238/6/4 247/6/4
f 246/2/4 237/2/4 247/2/4
f 247/6/4 238/6/4 248/6/4
f 241/6/4 242/6/4 249/6/4
f 242/5/4 243/5/4 250/5/4
f 249/6/4 242/6/4 250/6/4
f 243/2/4 244/2/4 251/2/4
f 250/5/4 243/5/4 251/5/4
f 244/2/4 245/2/4 251/2/4
f 251/2/4 245/2/4 252/2/4
f 245/5/4 246/5/4 253/5/4
f 252/2/4 245/2/4 253/2/4
f 246/6/4 247/6/4 254/6/4
f 253/5/4 246/5/4 254/5/4
f 254/6/4 247/6/4 255/6/4
f 250/6/4 251/6/4 256/6/4
f 251/2/4 252/2/4 257/2/4
f 256/6/4 251/6/4 257/6/4
f 252/5/4 253/5/4 258/5/4
f 257/2/4 252/2/4 258/2/4
f 253/6/4 254/6/4 259/6/4
f 258/5/4 253/5/4 259/5/4
f 259/6/4 254/6/4 260/6/4
f 257/6/4 258/6/4 261/6/4
f 258/6/4 259/6/4 261/6/4
f 261/6/4 259/6/4 262/6/4
f 265/6/5 264/6/5 263/6/5
f 266/6/5 264/6/5 265/6/5
f 271/6/5 268/6/5 267/6/5
f 272/6/5 268/6/5 271/6/5
f 273/6/5 270/6/5 269/6/5
f 274/6/5 270/6/5 273/6/5
f 277/6/5 276/6/5 275/6/5
f 278/6/5 276/6/5 277/6/5
f 283/6/5 280/6/5 279/6/5
f 284/6/5 280/6/5 283/6/5
f 285/6/5 282/6/5 281/6/5
f 286/6/5 282/6/5 285/6/5
f 291/6/5 288/6/5 287/6/5
f 292/6/5 288/6/5 291/6/5
f 293/6/5 290/6/5 289/6/5
f 294/6/5 290/6/5 293/6/5
f 299/6/5 296/6/5 295/6/5
f 300/6/5 296/6/5 299/6/5
f 301/6/5 298/6/5 297/6/5
f 302/6/5 298/6/5 301/6/5
f 305/6/5 304/6/5 303/6/5
f 306/6/5 304/6/5 305/6/5
f 307/6/6 308/6/6 309/6/6
f 309/6/6 308/6/6 310/6/6
f 311/6/6 312/6/6 315/6/6
f 315/6/6 312/6/6 316/6/6
f 313/6/6 314/6/6 317/6/6
f 317/6/6 314/6/6 318/6/6
f 319/6/6 320/6/6 323/6/6
f 323/6/6 320/6/6 324/6/6
f 321/6/6 322/6/6 325/6/6
f 325/6/6 322/6/6 326/6/6
f 327/6/6 328/6/6 331/6/6
f 331/6/6 328/6/6 332/6/6
f 329/6/6 330/6/6 333/6/6
f 333/6/6 330/6/6 334/6/6
f 335/6/6 336/6/6 339/6/6
f 339/6/6 336/6/6 340/6/6
f 337/6/6 338/6/6 341/6/6
f 341/6/6 338/6/6 342/6/6
f 343/6/6 344/6/6 347/6/6
f 347/6/6 344/6/6 348/6/6
f 345/6/6 346/6/6 349/6/6
f 349/6/6 346/6/6 350/6/6
f 351/6/6 352/6/6 353/6/6
f 353/6/6 352/6/6 354/6/6
